<?xml version="1.0" encoding="utf-8"?>
<!-- Generator: Adobe Illustrator 28.0.0, SVG Export Plug-In . SVG Version: 6.00 Build 0)  -->
<svg version="1.1" id="Layer_1" xmlns="http://www.w3.org/2000/svg" xmlns:xlink="http://www.w3.org/1999/xlink" x="0px" y="0px"
	 viewBox="0 0 687.8 179" style="enable-background:new 0 0 687.8 179;" xml:space="preserve">
<style type="text/css">
	.st0{fill:#004FFF;}
</style>
<g>
	<path class="st0" d="M314.9,37.5L314.9,37.5C314.8,37.5,314.9,37.5,314.9,37.5z"/>
	<path class="st0" d="M303,48.8L303,48.8L303,48.8z"/>
	<path class="st0" d="M268.1,63.8L268.1,63.8C268.1,63.8,268,63.8,268.1,63.8z"/>
	<path class="st0" d="M360.6,104.5c0.2-1.6,0-3.2-0.2-5.6c3.2-0.9,6.5-1.8,10.1-2.9c-0.3-1.1-0.8-2-1.6-3.1c-2.6,0.1-5,0.4-9.2,1
		c2.3-3.4,3.8-5.8,5.7-8.3c0.6-1.5,0.9-2.9,1.3-4.6c-0.3,1.7-0.6,3.1-1,4.5c5.9,0.6,11.8,1.1,17.7,1.7c0,0.6,0.1,1.2,0.1,1.7
		c-4.7,1.1-9.3,2.3-14.2,3.8c0.4,1.3,0.9,2.1,1.9,3c7.6-1.9,14.9-3.9,22.1-5.7c3.8-0.9,7.6-1.5,11.4-2.3c0.3-3,0.5-6.1,4.6-7.1
		c0.4-0.3,0.4-0.5,0.5-1c-1.4-0.4-2.9-0.4-4.7-0.3c-0.5,0.5-0.6,0.8-1,1.2c-2.2,1.4-4.3,4-6.2,3.8c-9.8-0.7-19.5-2-29.9-3.4
		c-0.8-0.3-1-0.3-1.2,0.1c-0.6-1.7-1.2-3.1-1.9-4.8c-2.4-0.4-4.8-0.5-8.1-0.5c-3.9-0.1-7-0.1-10-0.2c-1.4,0.1-2.8,0.2-5,0.2
		c-4.2-0.1-7.6-0.1-11.4-0.1c-4.9,0.4-9.3,0.7-13.7,1c0,0.8,0,1.5,0,2.6c6.1,1.6,12.2,2.9,18.6,4.1c0.2-0.7-0.1-1.5-0.5-2.4
		c-3.3-0.7-6.4-1-9.6-1.4c3.2,0.4,6.3,0.8,9.6,0.9c0.4-0.4,0.7-0.6,0.8-1.2c0.5,0.4,0.9,0.5,1.6,0.5c6.5-0.4,12.6-0.8,18.8-1.1
		c1.8-0.1,3.5,0.2,5.3,0.3c0,0.5,0,1,0.1,1.4c-5.3,0.1-10.6,0.2-16.3,0.4c-0.4,1-0.4,1.9-0.4,3.2c4.2,0.7,8.4,1.1,13.7,1.6
		c-1.2,3.3-2.3,6.3-3.5,9.6c-0.2,0.2-0.4,0.3-0.6,0.4c-1,0.4-1.8,0.7-2.2,1c-0.4,0-0.3,0-0.3-0.1c0.1,1.1,0.3,2.2,1.1,3.5
		c1.3,0.3,1.8,0.4,2.4,0.5c0.8,1.1,1.7,2.3,2.5,3.7C358.6,104.5,359.4,104.5,360.6,104.5z"/>
	<path class="st0" d="M74.2,131.7c-1.2,0.4-2.1,0.7-3.1,0.9c1-0.2,1.8-0.5,2.4-0.8c-1.4,0.2-2.5,0.4-3.4,0.9c-1-0.1-1.7,0-2.8,0.2
		c-2.2,4.3,2.2,2.1,3.8,3.6c1.4,0,2.1,0,2.8,0c1.4-0.3,2.9-0.6,4.8-1c0.6-0.1,1,0,1,0c0.8-0.4,1.7-0.8,3.2-1.3c4.7-1.1,8.6-2,12.6-3
		l0.1,0.1c0.2-0.2,0.5-0.4,1.3-0.8c2-0.6,3.5-1,5-1.4c1.7-0.7,3.4-1.5,5.7-2.4c1.4-0.3,2.3-0.5,3.1-0.7c3.7-1.4,7.4-2.7,11.8-4.4
		c3.8-1.6,6.9-2.9,10-4.2c0.4-0.2,0.7-0.4,1.2-0.6c-0.4,0.2-0.7,0.4-0.8,0.6c0.9-0.3,1.4-0.6,1.6-0.9c0,0,0,0,0.1,0
		c0.3,0,0.3,0,0.3,0c0.8-0.5,1.5-0.9,2.7-1.6c0.4-0.3,0.6-0.5,0.6-0.5h0.3c0.1-0.1,0.2-0.3,0.5-0.6c-0.4-1.3-1-2.3-1.8-3.7
		C116.7,118.9,96,126.5,74.2,131.7z"/>
	<path class="st0" d="M625.8,98.3c-2.6-0.1-4.4-0.2-6.2-0.2c-11.9-0.9-23.8-1.9-36.2-3c-0.9-0.2-1.3-0.3-1.6-0.4
		c-1.4,0.1-2.8,0.2-5,0.2c-1.9-0.2-3-0.4-4-0.6c-0.2,0-0.3,0.1-0.8,0.2c-0.1,0-0.2,0-0.3,0c-0.1-0.1-0.3-0.4-0.7-0.5
		c-2.1-0.2-3.7-0.3-5.7-0.4c-4.6,0-8.7-0.1-12.6-0.1c-0.1-0.1-0.3-0.2-0.4-0.4c-0.2-1.1,0.1-1.9,0.4-2.6c0-1.5,0-3-0.1-4.8
		c-0.2-0.3-0.4-0.3-0.5-0.2c-6.7,9-15.9,7-25,6c-2.3-0.3-4.6-0.3-7.2-0.8c-0.4-0.5-0.6-0.7-0.7-0.9c0.1,0.2,0.3,0.4,0.6,0.5
		c0.1-0.1,0.2-0.5,0-0.6c0.2,0.1,0.2,0.1,0.1-0.3c-0.2-0.9-0.2-1.4-0.6-2c-1-0.2-1.7-0.3-2.4-0.4c-0.6,0.4-1.1,0.9-2,1.3
		c-0.3,0-0.7,0-0.9,0s-0.4,0.1-0.4,0.2l-0.1,0.1c-2,0.2-4.1,0.4-6.9,0.6c-1.9,0-2.9,0-4.4,0.1c-1.8,0.1-3.2,0.1-4.6,0.1
		c0.5,0.6,0.9,1.1,1.7,1.8c1.1,0.1,1.9,0.2,2.9,0.3c-1-0.1-1.8-0.2-2.6-0.2c-0.4,1-0.9,1.9-1.7,3.3c0,1.4,0.3,2.4,0.8,3.5
		c0.1,0.1,0.4,0.1,0.4,0.1c0.5,0.2,1.1,0.3,1.7,0.6c-0.5-0.2-1-0.3-1.5-0.4c1.1,0.6,2,1,2.8,1.1c0.1,0.1,0.3,0.1,0.4,0.2
		c6.8,3.3,13.5,5.7,19.7,9c2.9,1.5,4.3,4.8,1.2,8.3c-1.7,1.9-3,4.3-4.4,6.5c-0.3,0.5-0.6,1.1-1.2,1.8c-0.3,0.1-0.2,0.2-0.2,0.2
		c-0.1,0.3-0.3,0.7-0.6,1.1c-0.3,0-0.2,0.1-0.2,0.1c-0.1,0.4-0.2,0.8-0.2,1.9c0.9,1.5,1.8,2.4,2.8,3.2c3-4.6,5.9-9.3,9-14.6
		c0.2-3.5,0.2-6.2,0.3-9c-4.9-2.7-9.8-5.5-14.9-7.9c-4.1-2-8.5-3.4-12.9-5.6c0-0.1,0-0.2,0.1-0.3c3.5,0.3,7,0.3,10.9,0
		c-0.4-1.2-1.1-2-1.6-2.6c0.5,0.6,1.2,1.5,2,2.6c8.8,0.9,17.5,1.5,26.6,2.1c4.6,0,8.8,0,12.9-0.1c-4.2,0.1-8.3,0.1-12.5,0.1
		c-2.7,3.6-5.4,7.2-8.2,11.1c0,1,0,1.8,0.1,2.6c-0.1-0.7-0.1-1.5-0.2-2.2c-0.6,0.1-1.3,0.3-2.3,0.4c-0.4,2.7-0.4,5.4-0.5,8.6
		c1,1.1,2,1.7,3.6,2.5c1.6-0.9,2.5-2,3.5-3.4c-0.8-1.7-1.6-3.1-2.6-4.3c-0.6,0.1-1.4,0.1-1.4-0.1c0,0.2,0.8,0.2,1.7-0.2
		c2.8-3,5.2-5.4,7.3-8.1c3.2-4.1,6.4-7.3,12.4-5.6c2.3,0.6,4.9,0,7.2-0.3c0.3-0.9,0.8-1.9,1.3-2c-0.6,0.1-1,1.2-1,2.3
		c4.3,0.6,8.1,0.7,11.9,1c18.3,1.3,36.6,2.6,54.9,3.9c1.9-0.1,3.7-0.2,7-0.4c-2.4-1.4-3.5-2.1-4.7-3.1
		C628.7,98.6,627.7,98.5,625.8,98.3z"/>
	<path class="st0" d="M383.8,66.9c8.8-6.6,19-10.1,29.8-13c0.1-1.2-0.1-2.1-0.6-3.3c-0.3-0.2-0.7-0.4-1.2-0.4
		c-1.2,0.1-1.9,0.2-2.6,0.3c-0.9,0.4-1.7,0.8-3.3,1.3c-1.8,0.4-2.9,0.6-4,0.9c-7.3,3.8-14.6,7.6-22.3,11.5c-0.4,0.2-0.6,0.2-0.6,0.2
		c-4.5,3.7-8.9,7.4-13.7,11.5c0.3,1.8,1,3.2,1.6,4.5c0.2,0,0.4,0,0.9,0c2-0.7,3.7-1.3,5.7-2c0.4-0.5,0.4-0.9,0.4-1.7
		C377.1,73.3,380.2,69.7,383.8,66.9z"/>
	<path class="st0" d="M520.2,89.6c12.4-3.8,24.6-8,37.3-12.2c0.8-0.3,1.6-0.8,2-0.8c-0.4,0-1.1,0.5-1.6,0.8
		c-0.2,1.1-0.2,2.4-0.8,3.3c-1.1,1.6-2.7,2.8-4.1,4.9c-0.1,2.1-0.1,3.6,0.3,5c3.5-3.6,6.6-7.1,9.6-10.9c-1.2-1.2-2.1-2.2-3.2-2.9
		c1.1,0.7,2,1.7,3.5,2.9c3.5-2.7,8.2-4.6,7.4-11c-2.3,0.7-4.1,1.2-6,1.7c-0.1,0-0.2-0.1-0.2-0.1c-0.2,0.2-0.4,0.3-0.7,0.5
		c0.3-0.2,0.4-0.4,0.4-0.6c-0.6,0.2-0.9,0.5-0.8,0.8c0.1,0,0.2-0.1,0.3-0.1c-0.2,0.1-0.4,0.2-0.6,0.3c-1.3,0.3-2,0.4-2.7,0.6
		c-4.8,2-9.6,4-15,6.3c-1.4,0.5-2.2,0.8-3,1c-5.9,2.1-11.8,4.1-17.7,6.3c-1.4,0.5-2.6,1.3-4.2,2.1c-0.3,0.1-0.2,0.3-0.2,0.3
		C519.9,88.1,520,88.6,520.2,89.6z"/>
	<path class="st0" d="M122.6,62.7c6.4-2.9,13-5.4,19.9-8.1c0.7-0.3,0.9-0.5,1.5-0.8c0.3,0,0.6-0.1,0.7-0.2c-0.9-0.4-1.8-0.7-3.2-1
		c-4.5,1.4-8.7,2.7-13.5,4.3c-1.4,0.4-2.1,0.6-3.1,1.1c-5.7,2.7-11.2,4.8-16.4,7.7c-10.1,5.7-20,11.8-30,17.7
		c0.6,0.3,1.3,0.7,2.2,1.1c7.2-3.8,13.9-7.9,20.9-11.6C108.5,69.3,115.5,65.9,122.6,62.7z"/>
	<path class="st0" d="M207.5,37.3c0.9-0.3,1.4-0.5,2.2-0.7c8.6-1.4,16.8-2.9,25.1-4.2c5.3-0.8,10.7-1.4,16.3-2.3
		c-1-0.7-2.2-1.1-3.4-1.5c1.2,0.4,2.3,0.8,3.8,1.4c1,0.3,1.8,0.4,2.9,0.3c1.5-0.4,2.5-0.6,4-0.8c8.1,0.2,15.9-0.3,23.6,0.6
		c9.4,1.1,18.6,3.4,28.3,5.3c0.9,0.3,1.5,0.4,2.2,0.8c0.3,0.3,0.5,0.3,1,0.5c0.4,0,0.7,0,1,0.2c-0.2-0.2-0.4-0.1-0.6,0.1
		c0.4,0.4,0.6,0.4,0.8,0.2c0.1,0.1,0.1,0.2,0,0.2c0.5,0.2,1,0.4,1.5,0.8c3.2,4.6-1,5.1-3.6,6.5c-1,0.2-1.6,0.5-2.5,0.8
		c-1.1,0.6-1.9,1.2-3.1,1.9c-1.4,0.5-2.4,0.9-3.8,1.4c-0.2,0-0.3,0-0.3-0.1c-0.2,0.2-0.4,0.4-0.9,0.6c-4.3,2-8.3,4-12.6,6.1
		c-0.6,0.4-0.8,0.6-1.4,0.8c-1.4,0.4-2.5,0.8-3.9,1.2c-0.4,0-0.6,0.4-0.8,0.4c-0.2,0-0.2-0.1-0.3,0c-0.6,0.3-1.1,0.6-2,0.9
		c-1.5,0.5-2.7,1.1-4.1,1.7c-1.1,0.7-1.8,1.3-2.9,1.9c-0.5,0-0.6,0.1-1.1,0.1c-1.6,0.4-2.9,0.9-4.7,1.4c-0.2,0-0.3,0-0.3,0
		c-1.8,0.8-3.6,1.6-5.8,2.3c-0.6,0-0.7,0.1-1.3,0.3c-2,1-3.8,1.9-5.9,2.8c-0.5,0.1-0.7,0.2-1.1,0.1c-0.5,0.1-0.8,0.3-1.2,0.7
		c0.5,1.2,1.1,2.2,1.9,3.4c1.3-0.1,2.4-0.4,3.8-0.8c0.3-0.1,0.4-0.1,0.4-0.1c1.1-0.6,2.2-1.3,3.6-2c0.3-0.1,0.4-0.1,0.4-0.1
		c2.7-1.1,5.5-2.2,8.9-3.4c1.2-0.3,1.7-0.4,2.2-0.5c0.4-0.2,0.8-0.5,1.8-0.7c0.8-0.1,1-0.2,1.2-0.2c0.7-0.4,1.4-0.8,2.3-1.2
		c-0.8,0.4-1.5,0.8-2,1.2c1.4-0.6,2.4-1.1,3.1-1.7c0.1,0,0.2-0.1,0.4-0.2c2.8-0.7,4.9-1.4,7-2c0.1-0.1,0.3-0.2,1-0.5
		c4.6-2.1,8.7-3.9,12.8-5.7c0.8-0.4,1.7-0.7,3.1-1.2c1.2-0.4,1.9-0.6,2.6-0.9c1-0.5,2-1,3.3-1.7c0.3-0.1,0.4-0.1,0.4-0.1
		c1.4-0.7,2.7-1.5,4.6-2.4c1-0.4,1.5-0.6,2-0.7c0.2-0.3,0.4-0.6,1-1.4c1.9-2.6,3.5-4.8,5-7c-0.6-0.9-1.3-1.9-2.1-3.2
		c-0.5-0.6-0.7-0.8-0.7-1.1c-0.6-0.2-1.1-0.5-1.8-1c-0.1-0.3-0.1-0.3-0.1-0.3c-0.3-0.1-0.6-0.3-1.3-0.7c-0.8-0.6-1.3-1-1.7-1.3
		c-0.4-0.1-0.8-0.2-1.5-0.5c-0.3-0.2-0.5-0.4-0.7-0.4c-0.8-0.3-1.2-0.6-1.7-0.9c-0.2,0-0.4,0-1.1-0.1c-1.7-0.4-2.8-0.7-3.9-1
		c-4.4-0.9-8.9-1.7-14-2.7c-1.5-0.5-2.2-0.9-3-1.2c-5.3,0-10.7-0.1-16.9-0.2c-1.7-0.1-2.5-0.1-3.3-0.1c0,0,0.1,0.2,0.2,0.3
		c-0.4,0.2-0.9,0.3-1.4,0.3c0.4-0.1,0.8-0.2,1-0.3c-1.1,0-1.9,0.1-2.4,0.4c-0.4-0.3-0.5-0.4-1.3-0.5c-1.1-0.1-1.5-0.1-2-0.2
		c-0.4,0.2-0.9,0.3-1.6,0.6c-0.2,0-0.4,0-0.6,0.1c-0.4-0.1-0.9-0.1-1.9-0.2c-3.5,0-6.2,0-8.9,0.1c-0.4,0.1-0.9,0.1-2,0.2
		c-3.1,0.3-5.4,0.6-7.8,0.9c-5.5,1.1-10.9,2.1-17.2,3.3c-1.8,0.2-2.9,0.2-4,0.3c-7.1,1.9-14.2,3.8-21.6,5.9c0.9,0.8,2.2,1.4,3.6,2.3
		C203.6,38.5,205.4,38,207.5,37.3z M257.5,26.4c-1,0.1-2,0.2-3,0.2C255.5,26.6,256.5,26.5,257.5,26.4z"/>
	<path class="st0" d="M517.8,155.5c-2,0.8-3.7,1.6-6.2,2.8c0-7.3,1.5-13.2,4.5-19.2c-0.7-1-1.4-1.7-2.1-2.3c0.7,0.6,1.5,1.3,2.4,1.7
		c1-1.8,1.7-3.3,2.1-4.9c0.6-0.4,0.8-0.7,1-1.4c-0.9-1.1-1.8-2-2.7-3.2c-1.3,1.8-2.6,4.1-4.2,6.9c-1,2-1.6,3.4-2.3,4.8
		c-0.6,1.5-1.1,2.9-1.8,5.1c-0.7,2.4-1.2,4.1-1.7,5.8c0,1.4,0.1,2.8,0.1,4.9c0.7,2.2,1.4,3.6,2.4,5.2c4.2,1.9,7.5,0.7,10.7-1.5
		C519.2,158.7,522.3,155.7,517.8,155.5z"/>
	<path class="st0" d="M413.1,50.5c0.4,1.3,0.6,2.3,0.8,3.2c3.4-0.1,6.8-0.9,10.1-0.3c7.1,1.3,9.9,4.4,6.3,14.8
		c1.9,0.3,4.3-0.1,2.8,3.5c1.4-2,2.6-4.1,3.7-6.6c0-1.5,0.1-2.5,0.2-3.6c-1-2.8-1.9-5.5-3.2-8.9c-0.8-1.2-1.4-1.8-1.9-2.4
		c-0.4,0-0.7,0-1.4-0.4c-0.8-0.3-1.2-0.5-1.6-0.6c-5,0.2-10,0.3-15.5,0.4c-0.4-0.1-0.3,0-0.3,0S412.9,50.1,413.1,50.5z"/>
	<path class="st0" d="M650.6,99.1c0-0.2,0-0.2,0-0.2c-0.4-0.2-0.8-0.3-1.5-0.7c-0.3-0.2-0.5-0.1-0.9-0.1c-4.1,0.1-7.8,0.1-12.5,0.1
		c1.2-2.3,2.1-3.9,2.8-5.6c0.3-0.8,0.3-1.8,0.4-2.7c-1,0.2-2.1,0.3-3.2,0.7c-1.2,1.2-2.3,2.1-3.3,3c-0.3,1-0.5,1.9-1,3.2
		c-0.1,0.2-0.2,0.4-0.2,0.5c0-0.1,0-0.3-0.1-0.5c-0.7-0.4-1.2-0.5-1.7-0.6c0.6,0.4,1.1,0.8,1.7,1.2c-0.3,0.4-0.5,0.7-0.9,1.5
		c0.9,1.1,2,1.8,4.5,3.2c-3.3,0.2-5.2,0.3-6.9,0.7c2.3,1.2,4.5,2.6,6.7,2.8c3.9,0.3,7.9-0.2,11.9-0.3c1.2-0.3,2.4-0.6,4.1-1.2
		c0.6-0.5,0.8-0.7,1.1-0.8C651.2,102.1,650.9,100.8,650.6,99.1z M643.8,99.7c0.1,0,0.2,0.1,0.3,0.1c-1.9,0.2-3.5,0.5-5.1,0.8
		C640.6,100.3,642.2,100,643.8,99.7z M646.7,100.9c0.1,0.1,0.3,0.1,0.4,0.2C647,101,646.8,101,646.7,100.9z"/>
	<path class="st0" d="M650.6,98.9L650.6,98.9C650.6,98.9,650.6,98.8,650.6,98.9z"/>
	<path class="st0" d="M323.2,54.7c-0.3,0.2-0.6,0.4-1.3,0.8c-1,0.5-1.6,0.8-2.2,1c-0.4,0.3-0.9,0.5-1.8,1c-0.8,0.2-1.1,0.3-1.5,0.3
		c-0.6,0.3-1.3,0.7-2.6,1.2c-2.1,1-3.5,1.8-5,2.6c1,0.7,2,1.4,3.4,2.4c-2.1,1.5-3.7,2.6-5.1,4.1c4.8-1.8,9.4-4,14-6.1
		c0.1,0,0.2,0.1,0.2,0.1c0.3-0.2,0.6-0.4,1.3-0.8c0.4-0.2,0.9-0.3,1.1-0.5c4.7-2.6,9.3-4.8,13.8-7.1c-1.2-0.7-2.3-1.5-3.9-2.6
		c-0.4-0.3-0.8-0.3-0.8-0.3c-0.5,0.3-1,0.7-2,1.2C327.9,52.8,325.5,53.8,323.2,54.7z"/>
	<path class="st0" d="M518,155.1c4.3,0.6,1.2,3.5,2.3,4.9c9.4-5.4,15-13.4,17.6-23.4c-1.9,0.9-3.7,1.9-6,2.9
		C529.5,146.9,522.6,149.9,518,155.1z"/>
	<path class="st0" d="M353.6,47.2c0.5,0,0.6,0.1,0.6,0.1c3.6-1.4,7.2-2.8,10.7-4.4c2.1-1,4-2.4,6-4.2c-0.1-1-0.1-1.4-0.1-1.8
		c-0.3-0.2-0.7-0.4-1.4-0.8c-0.9-0.2-1.4-0.3-1.9-0.3c-0.3,0.2-0.6,0.4-1.5,0.7c-2.5,0.8-4.5,1.6-6.4,2.3c-3,1.5-6,3-9.3,4.7
		c-0.3,0.1-0.4,0.1-0.4,0.1c-0.2,0.3-0.3,0.6-0.7,1c0.3,1.1,0.8,2,1.6,3.1C351.7,47.5,352.4,47.4,353.6,47.2z"/>
	<path class="st0" d="M176.6,43.3c0.2-0.5,0.3-0.7,0.2-1.2c-2.8,0.6-5.6,1.3-9.1,2.2c-2.1,0.4-3.4,0.6-5.1,1.1
		c-4.8,1.5-9.4,2.7-14.2,4.1c-1.4,0.4-2.5,0.7-3.6,1c-1.1,0.5-2.2,1.1-3.2,1.8c1.1,0.5,2.1,0.8,3.1,1.1
		C155.4,50.1,165.9,46.9,176.6,43.3z"/>
	<path class="st0" d="M538.4,133.2c-0.8-6-1.7-11.4-2.6-16.8c-1,1.1-1.9,2.1-3.3,3.3c1.8,6.4,1.7,12.7-0.5,19.4
		c2.1-0.6,4-1.5,6.1-2.7c0.3-0.7,0.4-1.3,0.4-1.9C538.2,134.3,538.1,134.1,538.4,133.2z"/>
	<path class="st0" d="M70.7,136.6c-1.3-1.5-5.7,0.7-3.9-3.5c-4.3-1.1-8.7-2.2-13.4-3.5c-1.4,0.5-2.4,1.1-3.5,2.4
		c3.8,2.5,7.6,4.4,11.6,6.1c0.5-0.1,0.6,0,0.8,0.3c2.6-0.3,5.2-0.6,8.2-1.1C70.9,137,71,136.6,70.7,136.6z"/>
	<path class="st0" d="M176.8,43.1c2.6-0.2,5.3,0,7.9-0.5c5.5-1,10.9-2.3,16.6-3.8c-0.9-0.9-2.2-1.6-3.7-2.3
		c-0.4-0.2-0.6-0.2-1.1-0.1c-2.1,0.5-3.9,0.9-5.6,1.2c-0.2,0.1-0.3,0.2-1,0.4c-1.6,0.5-2.7,0.8-3.9,1.4c-3.1,1-6.1,1.8-9,2.8
		C176.9,42.6,176.9,42.8,176.8,43.1z"/>
	<path class="st0" d="M350.1,48.8c0.4-0.1,0.6-0.2,0.8-0.2c0,0,0-0.5-0.3-0.8c-0.8-1.3-1.3-2.2-2.1-3.2c-0.8,0.2-1.2,0.5-1.7,0.8
		c-0.2,0-0.3,0.1-1.1,0.1c-3.3,1.2-6,2.4-9,3.8c-1.1,0.6-2,1-2.8,1.7c1.3,1,2.5,1.8,4,2.5C342.2,51.9,346,50.4,350.1,48.8z"/>
	<path class="st0" d="M650.4,104.4c-1.6,0.3-2.8,0.7-3.6,1C648.4,105.1,649.6,104.8,650.4,104.4z"/>
	<path class="st0" d="M464.8,86.4c1.3,0.1,2.1,0.1,2.7-0.2c-1.3-0.3-2.3-0.3-3.3-0.3C464.2,85.9,464.4,86.3,464.8,86.4z"/>
	<path class="st0" d="M406.1,51.7c1.2-0.3,2.1-0.7,2.6-1.1C407.5,50.9,406.6,51.3,406.1,51.7z"/>
	<path class="st0" d="M351.2,48.5c1.1-0.4,1.9-0.9,2.3-1.3c-1.1,0.1-1.8,0.3-2.6,0.6C350.9,48.1,350.9,48.6,351.2,48.5z"/>
	<path class="st0" d="M82.5,134.3c-1.2,0.3-2,0.7-2.5,1.2C81.2,135.1,82,134.8,82.5,134.3z"/>
	<path class="st0" d="M331.1,51.5c0.8-0.3,1.3-0.6,1.4-1c-0.8,0-1.3,0-1.7,0.2C330.8,51,330.8,51.5,331.1,51.5z"/>
	<path class="st0" d="M464.4,86.5c-0.1-0.2-0.3-0.5-0.5-0.5c-0.5,0-0.8-0.1-1.2-0.1c-0.1,0.2-0.4,0.5,0,0.5
		C463.5,86.5,464,86.6,464.4,86.5z"/>
	<path class="st0" d="M538.4,133.7c-0.3,0.4-0.2,0.6,0.2,0.6C538.7,134,538.6,133.6,538.4,133.7z"/>
	<path class="st0" d="M572.6,94.1c-0.5-0.3-0.9-0.3-1.1-0.2c0.1,0.2,0.3,0.7,0.6,0.6C572.4,94.4,572.6,94.3,572.6,94.1z"/>
	<path class="st0" d="M190.7,37.4c-0.4,0-0.7,0.2-0.7,0.4C190.5,37.7,190.6,37.7,190.7,37.4z"/>
	<path class="st0" d="M311.8,30.5c-0.4-0.2-0.6-0.2-0.7,0C311.5,30.7,311.6,30.7,311.8,30.5z"/>
	<path class="st0" d="M367.1,35.7c-0.6,0.2-0.9,0.3-0.9,0.5C366.7,36.1,367,35.9,367.1,35.7z"/>
	<path class="st0" d="M370.6,36.5c-0.5-0.5-0.9-0.7-1.1-0.6C370,36.4,370.4,36.6,370.6,36.5z"/>
	<path class="st0" d="M650.5,98.6c-0.6-0.5-1-0.6-1.3-0.4C649.8,98.6,650.2,98.7,650.5,98.6z"/>
	<path class="st0" d="M322.6,61.4c-0.6,0.2-0.8,0.4-0.8,0.7C322.3,61.9,322.6,61.6,322.6,61.4z"/>
	<path class="st0" d="M412.8,50.3c0.1-0.2,0.2-0.6,0-0.6c-0.5,0.1-0.7,0.2-0.7,0.5C412.3,50.3,412.7,50.5,412.8,50.3z"/>
	<path class="st0" d="M431.6,50.1c-0.4-0.4-0.7-0.5-0.9-0.3C431.1,50.3,431.4,50.3,431.6,50.1z"/>
	<path class="st0" d="M281.6,76.8c-1.3,1-2.5,1.8-3.9,3.1c-4.7,3.8-9.3,7.3-13.9,10.8c-0.1,0.3-0.4,0.5-0.9,0.8
		c-0.2,0.1-0.2,0-0.2,0c-0.2,0.2-0.4,0.4-0.7,0.5c0.2-0.2,0.3-0.3,0.3-0.5c-0.6,0.3-0.9,0.6-1,0.8c0,0-0.1,0-0.1,0.1
		c-0.4,0-0.6,0.1-0.4,0.5c0.8,1.4,1.5,2.4,2.2,3.4c2.9-1.9,5.9-3.8,9.2-5.8c0.4-0.1,0.3-0.1,0.5-0.4c5.5-3.9,10.8-7.6,16-11.6
		c-1.1-2.3-2.1-3-3.1-2.8c1-0.3,2.1,0.4,3.4,2.7c0.7,0.2,0.9-0.1,0.9-0.4c0.1-0.3,0.2-0.7,0.6-1.2c0.6-1.3,0.9-2.5,1.2-3.9
		c-0.2-0.3-0.4-0.3-1-0.4c-1.6-0.3-2.9-0.5-4.3-1.1c-0.1-0.4-0.1-0.6-0.1-0.6c-1.6,0.8-3.2,1.6-5.5,2.6c-2.3,0.9-4,1.6-5.7,2.3
		c-0.3,0.2-0.5,0.4-1.3,0.7c-1,0.2-1.4,0.2-1.8,0.2c-0.9,0.4-1.7,0.8-3.1,1.4c-0.9,0.3-1.3,0.5-1.6,0.7c-0.3,0.2-0.7,0.4-1.1,0.7
		c0.4-0.2,0.6-0.5,0.7-0.7c-0.8,0.3-1.3,0.7-1.5,1.1h-0.1c-0.4,0-0.2,0-0.2,0c-0.2,0.2-0.4,0.3-0.6,0.5c0.3-0.2,0.4-0.3,0.4-0.5
		c-0.5,0.2-0.8,0.5-0.7,0.7l0,0c-0.3,0-0.3,0-0.3,0c-0.8,0.3-1.6,0.7-2.8,1.2c-1,0.4-1.6,0.6-2.1,0.8c-0.1,0.3-0.3,0.5-1.1,0.8
		c-1.7,0.5-2.8,0.8-4,1.1c-0.1,0.1-0.3,0.2-1,0.5c-4,1.7-7.5,3.1-11,4.6c-0.1,0.3-0.2,0.5-1,0.6c-1,0.2-1.4,0.3-1.9,0.4
		c-0.8,0.4-1.6,0.8-3,1.4c-2.4,1-4.1,1.8-5.9,2.6c-0.5,0.3-1,0.6-2,1c-1.5,0.5-2.5,0.8-3.6,1c-0.3,0.3-0.6,0.6-1.4,1.1
		c-1.1,0.4-1.6,0.4-2.2,0.5c-0.1,0.1-0.3,0.2-1,0.5c-4,1.7-7.5,3.2-11,4.7c-0.1,0.1-0.3,0.2-0.8,0.5c-0.8,0.3-1.2,0.5-1.6,0.7
		c-0.6,0.3-1.2,0.6-2.4,1.1c-1,0.4-1.5,0.6-2,0.8c-0.8,0.4-1.6,0.8-3,1.4c-3.8,1.4-6.9,2.4-10,3.5c0,0-0.1,0.4-0.1,0.6
		c0,1.1,0,2,0.1,3.3c1.4-0.1,2.7-0.6,4.6-1.4c2-0.8,3.3-1.2,4.7-1.7c0.6-0.3,1.2-0.6,2.4-1.1c0.5-0.2,1-0.3,1-0.3
		c0.9-0.4,1.7-0.8,3-1.4c0.4-0.1,0.8-0.2,0.8-0.2c0.9-0.4,1.8-0.8,3.3-1.4c2.6-1,4.5-1.8,6.5-2.6c0.3-0.2,0.6-0.5,1.5-1
		c1.3-0.5,2.1-0.7,2.9-1c0.8-0.5,1.6-0.9,3-1.7c2.1-0.7,3.6-1.2,5.1-1.7c0.8-0.5,1.7-1,2.9-1.6c0.4-0.1,0.8-0.1,0.8-0.1
		c0.3-0.2,0.5-0.5,1.4-0.9c2.3-0.8,4-1.4,5.6-1.9c12.9-5.4,25.7-10.7,38.9-16.1C279,78.7,280.3,77.8,281.6,76.8z"/>
	<path class="st0" d="M142.7,112.4L142.7,112.4L142.7,112.4z"/>
	<path class="st0" d="M175.7,98.5L175.7,98.5C175.8,98.5,175.8,98.5,175.7,98.5z"/>
	<path class="st0" d="M162.5,103.7c0.5-0.1,0.7-0.2,1.1-0.2c0.4-0.3,0.5-0.4,1-0.5c1.5-0.6,2.8-1.2,4.4-1.8c0.7-0.1,1-0.3,1.5-0.6
		c0.3,0,0.6-0.3,0.8-0.3c1-0.4,1.8-0.7,3-1.2c0.2,0,0.3,0,0.3,0c0.2-0.3,0.4-0.5,0.9-0.8c0.2,0,0.3,0,0.3,0c0.7-0.5,1.5-0.9,2.6-1.3
		c0.8-0.2,1.3-0.5,2-0.7c0.5-0.2,0.7-0.5,1.2-0.6c0.6-0.1,0.9-0.3,1.5-0.5c0.8-0.4,1.4-0.7,2.2-1.1c0.2,0,0.3,0,0.3,0.1
		c0.2-0.2,0.4-0.5,0.9-0.7c0.3,0,0.5-0.3,0.7-0.3c1.1-0.4,2.1-0.9,3.3-1.4c0.3-0.1,0.6-0.4,0.8-0.4c0.7-0.4,1.3-0.7,2.1-0.9
		c3.6-1.4,6.9-2.8,10.5-4.2c0.9-0.3,1.5-0.5,2.5-0.8c1.1-0.3,1.8-0.7,2.9-1c0.3,0,0.5-0.5,0.5-0.7c0-0.1,0-0.2-0.1-0.2l0,0
		c0,0,0,0.1,0,0.2c0,0.2-0.2,0.7,0.2,0.7c0.8-0.6,1.3-1.1,1.6-1.7c-0.2,0-0.7,0.1-0.8,0.3c-0.2,0.2-0.4,0.2-0.5,0.3
		c0.2-0.1,0.3-0.2,0.5-0.3c0-1.2-0.1-2.2-0.2-3.6c-10.7,3.7-21.3,7.8-31.8,12.2c-13.9,5.8-27.6,11.8-41.6,18.2
		c0.5,1.6,1.1,2.7,1.7,3.7c1-0.4,2-0.8,3.4-1.2c0.2,0,0.3,0,0.3,0c0.8-0.4,1.6-0.7,2.9-1.4c3-1.4,5.5-2.5,8-3.6
		c0.8-0.3,1.6-0.7,2.8-1.1c0.5-0.4,0.7-0.6,1.3-0.8C159.3,105,160.7,104.4,162.5,103.7z M208.6,81.3c0-0.1,0-0.1,0.1-0.2
		c0.2,0,0.3-0.1,0.4-0.2c-0.1,0-0.1,0-0.2,0c0.1,0,0.1,0,0.2,0C208.9,81,208.8,81.2,208.6,81.3z"/>
	<path class="st0" d="M174.6,99.3L174.6,99.3L174.6,99.3z"/>
	<path class="st0" d="M185.6,94.3L185.6,94.3L185.6,94.3z"/>
	<path class="st0" d="M489.3,94.6c-1.7,1.7-3.3,2.8-5,2.7c1.7,0.1,3.1-1,4.2-2.7c-1.5,0-2.5,0-4,0c-1.4,0-2.4,0-3.5,0.2
		c-0.1,0.2-0.1,0.7-0.1,1.1c-0.3-0.3-0.4-0.2-0.9,0c-0.4,0.4-0.7,0.5-1.1,0.6c-10.9,2.2-21.6,4.2-32.3,6.5
		c-11.7,2.4-23.3,5-35.3,7.6c-0.4,1.1-0.4,2.2-0.4,3.7c2.1,0,4.1-0.4,6.9-0.9c2.6-0.4,4.6-0.6,6.5-0.9c0.6-0.3,1.2-0.7,2.5-1.2
		c2-0.4,3.4-0.5,4.7-0.7c0.6-0.2,1.1-0.5,2.4-0.8c2.5-0.4,4.3-0.6,6-0.9c0.1-0.1,0.3-0.2,1-0.5c2.2-0.4,3.8-0.6,5.4-0.9
		c1.3-0.4,2.6-0.7,4.5-1.2c2.3-0.4,3.9-0.6,5.5-0.8c1-0.3,1.9-0.7,3.5-1.3c5.5-1.3,10.4-2.4,15.3-3.2c7.9-1.3,15.5-4.9,23.8-2.7
		c-0.3-1-0.6-2-1-3.3C495.1,94.6,492.4,94.6,489.3,94.6z"/>
	<path class="st0" d="M307.2,104.7c-0.4,0-0.6,0.2-0.7,0.1c-1,0.2-2,0.5-3.3,0.7c-3.9,0.5-7.5,1-11.4,1.4c-0.5,0-0.5,0.1-0.8,0.5
		c2.2,1.2,4.7,2.1,7.8,3.1c3,0,5.2-0.1,7.4-0.2c2.6-0.6,5.2-1.2,8.5-1.9c3-0.4,5.2-0.8,7.5-1.1c0.9-0.3,1.9-0.7,3.5-1.1
		c2-0.3,3.4-0.5,4.7-0.8c1.2-0.3,2.4-0.7,4.3-1.2c2.6-0.4,4.5-0.6,6.5-0.8c0.9-0.3,1.9-0.5,3.5-0.9c1.3-0.1,1.9-0.2,2.5-0.2
		c0.6-0.3,1.3-0.6,2.6-1c1.4-0.5,2.1-0.9,2.7-1.4c-0.4-1.3-0.5-2.4-0.7-3.5C337,99.2,322.3,101.9,307.2,104.7z"/>
	<path class="st0" d="M371.9,111.1c-3.7-1.2-6.8-4.2-10.9-6.5c-1.5-0.1-2.3-0.1-3.1-0.1c0,0-0.5,0-0.7,0.3c0.4,1.4,1,2.6,1.7,3.7
		c3.1,2,6.1,4.1,9.7,6.3c0.7,0.3,1,0.4,1.3,0.6c0.2,0,0.4,0,1.1,0.1c1.4,0.5,2.1,0.8,2.9,1.1c1.3,0.1,2.6,0.1,4.5,0.4
		c2.3,0.4,3.9,0.6,5.5,0.9c0,0,0.4-0.2,1.1-0.3c3.9-0.1,7.1-0.2,10.4-0.2c1.9-0.4,3.8-0.7,6.4-1.1c3.3-0.4,5.8-0.7,8.3-1.1
		c0.1-0.1,0.2-0.3,0.5-1c0.2-1.6,0.2-2.7,0.2-3.7C397.8,112.7,384.8,115.4,371.9,111.1z"/>
	<path class="st0" d="M288.1,114.2c0-0.2,0-0.4,0-0.6c0,0-0.1,0-0.1,0.1C288.1,114,288.1,114.2,288.1,114.2z"/>
	<path class="st0" d="M288.1,114.2L288.1,114.2C288.1,114.3,288.1,114.2,288.1,114.2z"/>
	<path class="st0" d="M265.6,109.7c-1.6,0.1-3.2-0.2-5.3-0.3c-0.6,1.3-0.8,2.6-0.9,4.5c5.6,0.5,11.2,0.4,16.7,0.3
		c1.6-0.3,3.2-0.6,5.5-0.9c2-0.2,3.3-0.5,4.6-0.7c0.3,0,0.5,0.1,1.3,0.4c0.2,0.2,0.4,0.5,0.4,0.6c0.9-0.7,2-1,3.1-1.2
		c0.9-0.3,1.9-0.7,3.5-1.1c1.8-0.3,2.9-0.5,3.7-0.8c-2.8-1-5.2-2-7.6-2.9C282.4,108.3,274,109.1,265.6,109.7z"/>
	<path class="st0" d="M259,100.5c1.2-1.3,2.6-2.5,4-4.1c-0.5-1.3-1.2-2.3-2.4-3.5c-4.1,3.6-7.7,7.5-11.2,11.6c0,0.8,0,1.3-0.1,1.9
		c1.9,2.1,3.7,4.2,6.1,6.7c1.5,0.5,2.6,0.7,3.7,0.6c0.3-1.6,0.5-2.9,0.7-4.2C254.8,105.7,254.7,105.1,259,100.5z"/>
	<path class="st0" d="M186,112.7c-1.1,0.4-1.6,0.6-2.1,0.9c-0.8,0.4-1.6,0.8-3.1,1.4c-3.4,0.9-6.1,1.8-8.9,2.6
		c-0.8,0.4-1.6,0.8-2.3,1.6c1.4,1.9,1,2.7,0.2,3.1c0.8-0.4,1.1-1.2-0.4-2.9c-0.3-0.2-0.7-0.3-0.7-0.3s-0.4,0.1-0.5,0.3
		c-0.2,0-0.4,0-0.6,0.1c-0.7-0.1-1-0.1-1.2,0c1.4-1.3,3-2.5,5.1-4.1c2-1.2,3.4-2,4.8-2.9c0.6-0.6,1.3-1.1,2.2-1.7
		c0.3-0.1,0.3-0.1,0.3-0.1c0.3-0.3,0.5-0.6,0.9-0.9c-0.3,0.3-0.5,0.6-0.6,0.8c0.7-0.5,1.1-1,1.4-1.4c0.1-0.1,0.2-0.2,0.4-0.3
		c1-0.2,1.5-0.3,1.9-0.3c0.1-0.1,0.2-0.3,0.8-0.7c1.7-1,2.9-1.6,4.2-2.3c0.8-0.6,1.6-1.2,2.8-1.9c0.3-0.1,0.4,0,0.4,0
		c0.4-0.3,0.9-0.5,1.8-1c3.3-1.5,6-2.8,8.8-4.1c0.2-0.3,0.4-0.5,1.2-0.9c1-0.5,1.6-0.8,2.1-1c0.1-0.3,0.2-0.4,0.9-0.7
		c0.7-0.4,0.9-0.7,1.2-1c-0.6-1.1-1.1-2.2-2-3.4c-0.7,0.1-1.1,0.2-2,0.4c-1.2,0.3-1.9,0.6-2.5,0.9c-0.3,0.2-0.6,0.5-1.4,0.9
		c-1,0.4-1.6,0.7-2.1,0.9c-0.5,0.3-1,0.6-1.9,1.2c-1.6,0.8-2.8,1.3-4,1.8c-0.8,0.4-1.5,0.8-2.9,1.5c-1.8,1-3,1.7-4.2,2.4
		c-0.8,0.5-1.7,1-3,1.7c-0.5,0.2-1,0.3-1,0.3c-0.7,0.4-1.4,0.9-2.2,1.3c0.8-0.4,1.4-0.9,1.9-1.3c-1.4,0.7-2.4,1.3-3.2,2
		c-0.1,0-0.1,0.1-0.2,0.1c-0.3,0-0.2,0-0.2,0c-0.2,0.3-0.4,0.5-0.9,0.8c-0.3,0.1-0.3,0-0.3,0c-0.4,0.4-0.8,0.8-1.7,1.5
		c-0.7,0.5-1,0.6-1.3,0.5c-0.1,0.3-0.4,0.5-0.9,0.8c-0.2,0.1-0.4,0.1-0.4,0.1c-0.4,0.3-0.7,0.5-1.2,0.8c0.4-0.3,0.7-0.5,0.9-0.8
		c-0.9,0.5-1.4,0.9-1.8,1.3c-0.1,0-0.1,0-0.1,0.1c-0.3,0-0.2,0-0.2,0c-0.2,0.3-0.5,0.5-1.2,1.1c-3.3,3.1-6.1,5.9-9,9
		c1,1.7,2,3,3,4.3c0.7-0.2,1.4-0.4,2.8-0.7c1.5-0.3,2.3-0.4,3.1-0.5c0-1.2,1.8-1.2,2.8-1.8c-1,0.6-2.7,0.7-2.5,1.8
		c0.8,0.1,1.4,0.2,2,0.3c0.9-0.4,1.8-0.9,3.3-1.5c1-0.3,1.4-0.4,1.8-0.5c0.3-0.2,0.6-0.5,1.5-0.8c4.1-1.5,7.5-2.9,11-4.3
		c0.6-0.3,1.2-0.6,2-1.6c0.1-1.5,0-2.4,0-3.3C188,112.5,187.3,112.5,186,112.7z"/>
	<path class="st0" d="M357.8,104.2c-0.8-1.5-1.7-2.6-2.5-3.4c0.6,1.5,1.1,2.6,1.8,3.8C357.3,104.5,357.8,104.5,357.8,104.2z"/>
	<path class="st0" d="M286.2,113c0.2,0.9,0.4,1.3,0.7,1.8c0.1-0.7,0.2-1.3,0.2-2C286.8,112.7,286.6,112.6,286.2,113z"/>
	<path class="st0" d="M334.4,104.4c-1.6,0.3-2.8,0.6-3.6,1C332.4,105.2,333.6,104.8,334.4,104.4z"/>
	<path class="st0" d="M208.5,108.3c-1.3,0.4-2.2,0.8-2.7,1.2C207.1,109.1,208,108.7,208.5,108.3z"/>
	<path class="st0" d="M294.4,111.4c-1.3,0.3-2.3,0.6-2.8,1C293,112.1,293.9,111.8,294.4,111.4z"/>
	<path class="st0" d="M222.3,102c-1.1,0.5-1.9,1-2.3,1.5C221.1,103,221.9,102.5,222.3,102z"/>
	<path class="st0" d="M344.4,102.7c-1.3,0.2-2.2,0.5-2.8,0.8C342.9,103.2,343.8,103,344.4,102.7z"/>
	<path class="st0" d="M145.4,111.3c-1.1,0.4-1.9,0.8-2.3,1.2C144.2,112.1,144.9,111.6,145.4,111.3z"/>
	<path class="st0" d="M156,107.4c0.4-0.5,0.5-0.8,0.4-1.1c-1.2,0.4-2,0.7-2.4,1.1C154.8,107.5,155.3,107.6,156,107.4z"/>
	<path class="st0" d="M172.3,123c-1.3,0.5-2.2,0.9-2.7,1.4C170.9,124,171.8,123.5,172.3,123z"/>
	<path class="st0" d="M163.4,124.7c-1,0.2-1.7,0.4-2.2,0.7C162.3,125.2,163,125,163.4,124.7z"/>
	<path class="st0" d="M135.1,116.5c1.1-0.5,1.8-1.1,2.2-1.5C136.2,115.5,135.5,116,135.1,116.5z"/>
	<path class="st0" d="M200.5,111.5c-1,0.3-1.6,0.6-1.8,0.9C199.6,112.1,200.2,111.8,200.5,111.5z"/>
	<path class="st0" d="M288.4,114.3c0.7-0.1,1-0.2,1.3-0.4c-0.6,0.1-1.1,0.1-1.6,0.2C288.1,114.2,288.1,114.3,288.4,114.3z"/>
	<path class="st0" d="M349.4,101.5c-1,0.2-1.7,0.5-1.9,0.9C348.5,102.1,349.2,101.8,349.4,101.5z"/>
	<path class="st0" d="M95.8,131.3c0.5-0.2,0.8-0.4,0.8-0.7C96,130.8,95.8,131,95.8,131.3z"/>
	<path class="st0" d="M215.5,105.4c0.6-0.3,0.9-0.5,1-0.7C215.8,104.9,215.5,105.2,215.5,105.4z"/>
	<path class="st0" d="M174.6,122.4c0.6-0.2,0.9-0.4,0.9-0.6C174.9,121.9,174.6,122.2,174.6,122.4z"/>
	<path class="st0" d="M231.7,98.4c0.5-0.2,0.8-0.4,0.8-0.7C232,97.9,231.7,98.2,231.7,98.4z"/>
	<path class="st0" d="M254.6,73.6c-0.7-1.3-1.3-2.3-1.9-3.3c-8.1,3.2-16.3,6.4-24.4,9.6c-1.5,0.6-3.1,1.2-5,1.9
		c-0.5,0.4-0.7,0.6-1.3,0.7c-1.7,0.8-3.2,1.6-5.3,2.6c-4.4,1.9-8.2,3.6-12.1,5.4c0,0-0.1,0.5,0.2,0.7c0.9,1.4,1.4,2.5,2.3,3.6
		c0.7-0.1,1.2-0.1,1.6-0.2c0.1-0.1,0.3-0.2,0.8-0.6c2.2-1.1,3.9-1.9,5.7-2.6c0.6-0.3,1.2-0.6,2.3-1.2c1.7-0.8,3-1.3,4.2-1.8
		c0,0,0.1-0.1,0.2-0.2c-0.1,0.1-0.2,0.3-0.2,0.4c0.2,0,0.4-0.3,0.3-0.5l0,0c0.2,0,0.2,0.1,0.2,0.1c0.3-0.2,0.5-0.5,1.4-0.9
		c2.7-1.1,4.8-1.9,7-2.8c0-0.3,0.2-0.6,1-0.9c1.7-0.5,2.8-0.9,4-1.2c0,0,0.1-0.1,0.3-0.2c-0.1,0.1-0.3,0.3-0.2,0.4
		c0.3,0,0.4-0.2,0.4-0.5l0,0c0.3,0,0.2,0.1,0.2,0.1c0.3-0.2,0.6-0.4,1-0.6c-0.3,0.2-0.5,0.5-0.6,0.7c0.7-0.3,1.1-0.7,1.3-1.1h0.1
		c0.3,0,0.2,0,0.2,0c0.3-0.2,0.5-0.5,1.3-0.8c1.1-0.4,1.6-0.6,2.2-0.8c0.7-0.4,1.4-0.8,2.6-1.5c1-0.4,1.6-0.5,2.1-0.6
		c0.5-0.3,1-0.6,2.1-1c1.3-0.5,2.1-0.7,2.9-1c0.5-0.2,1-0.5,1.6-0.7c-0.5,0.2-1,0.5-1.2,0.7c1.1-0.3,1.8-0.7,2.3-1.1h0.1
		c0.3,0.1,0.2,0,0.2,0S254.7,74,254.6,73.6z"/>
	<path class="st0" d="M307.1,61.7c-0.3,0.2-0.7,0.4-1.1,0.6c0.4-0.2,0.7-0.4,0.8-0.7c-0.8,0.3-1.3,0.7-1.5,1l0,0c-0.3,0-0.2,0-0.2,0
		c0,0.4-0.3,0.6-1.1,0.7c-0.7,0.1-0.9,0.1-1.1,0.2c-0.4,0.3-0.8,0.5-1.2,0.8c0.4-0.3,0.7-0.5,0.9-0.8c-0.9,0.4-1.5,0.8-1.9,1.2
		c-0.1,0-0.1,0.1-0.2,0.1c-0.4,0-0.2,0-0.2,0c-0.5,0.3-1.1,0.7-2.2,1.1c-1.3,0.3-2,0.5-2.7,0.7c-0.3,0.2-0.5,0.5-1.2,1
		c-1,0.5-1.6,0.6-2.1,0.8c-0.4,1-0.8,2.1-1,3.5c0.5,0.4,0.7,0.5,0.9,0.5c2.5-0.3,4.9-0.7,7.8-1c0.4,0,0.4,0.2,0.4,0.2
		c0.2-0.2,0.5-0.4,0.8-0.6c-0.3,0.2-0.4,0.4-0.5,0.6c0.7-0.4,1.1-0.7,1.3-1c0.1,0,0.2-0.1,0.3-0.1c0.5,0,1-0.2,1-0.2
		c0.1-0.4,0.2-0.8,0.3-1.2c0.2,0.2,0.4,0.3,0.9,0.7c1.1-0.4,2-0.9,2.9-1.8c1.7-1.5,3.3-2.6,5.4-4.1c-1.4-1-2.4-1.7-3.7-2.4
		C307.9,61.6,307.5,61.6,307.1,61.7z"/>
	<path class="st0" d="M263.2,70.5c3.1-1.1,5.9-2.2,8.2-3.3C268.3,68.3,265.6,69.4,263.2,70.5z"/>
	<path class="st0" d="M281.1,73.2c2-0.9,3.6-1.7,4.8-2.5C284,71.5,282.4,72.4,281.1,73.2z"/>
	<path class="st0" d="M315.4,49.4c-1.7,0.8-3.1,1.5-4.1,2.2C313,50.8,314.4,50,315.4,49.4z"/>
	<path class="st0" d="M262.5,70.6c-1.4,0.7-2.5,1.3-3.2,2C260.7,71.9,261.7,71.2,262.5,70.6z"/>
	<path class="st0" d="M272.9,73.1c0.2-0.5,0.4-1.1,0.4-1.8c-0.5,0.3-0.9,0.9-1.2,1.4C272.4,72.8,272.7,72.9,272.9,73.1z"/>
	<path class="st0" d="M254.9,73.8c-0.1,0.2-0.3,0.6,0,0.6c1.5-0.6,2.7-1.2,3.6-1.7C257.1,73,256.1,73.3,254.9,73.8z"/>
	<path class="st0" d="M307.7,53.4c1.3-0.6,2.3-1.2,2.9-1.7C309.2,52.3,308.3,52.8,307.7,53.4z"/>
	<path class="st0" d="M190.5,103.7c-1.1,0.7-1.9,1.3-2.4,1.9C189.3,104.9,190.1,104.3,190.5,103.7z"/>
	<path class="st0" d="M323.7,39.7c-0.6-1.3-1.3-2.2-2-2.8C322.3,38.2,323,39.2,323.7,39.7z"/>
	<path class="st0" d="M238.6,90.6c-1.2,0.4-2,0.8-2.4,1.2C237.3,91.4,238.1,91,238.6,90.6z"/>
	<path class="st0" d="M183.5,113.5c-1.1,0.4-1.9,0.7-2.4,1.2C182.3,114.4,183.1,114,183.5,113.5z"/>
	<path class="st0" d="M304.5,54.4c-1.2,0.3-2,0.7-2.5,1.1C303.2,55.2,304,54.8,304.5,54.4z"/>
	<path class="st0" d="M188.6,111.6c-1.2,0.3-2,0.6-2.4,1c1.1,0,1.8-0.1,2.6-0.3C188.9,112,188.9,111.6,188.6,111.6z"/>
	<path class="st0" d="M261.2,81.6c1.1-0.3,1.9-0.7,2.3-1C262.4,80.9,261.6,81.2,261.2,81.6z"/>
	<path class="st0" d="M176.7,112.4c1-0.6,1.5-1.2,1.8-1.7C177.6,111.3,177,111.8,176.7,112.4z"/>
	<path class="st0" d="M201.6,106.6c-1.2,0.4-1.9,0.9-2.4,1.3C200.4,107.4,201.2,107,201.6,106.6z"/>
	<path class="st0" d="M242.3,79.5c1-0.5,1.7-0.9,2.1-1.3C243.4,78.7,242.7,79.1,242.3,79.5z"/>
	<path class="st0" d="M269.1,77.9c1.2-0.4,2.1-0.8,2.5-1.3C270.4,77,269.6,77.5,269.1,77.9z"/>
	<path class="st0" d="M248.5,76.6c-0.8,0.3-1.3,0.5-1.5,0.8C247.8,77.2,248.3,76.9,248.5,76.6z"/>
	<path class="st0" d="M318.9,34.8c0.7,0.5,1.2,0.8,1.7,0.7C319.9,35,319.4,34.7,318.9,34.8z"/>
	<path class="st0" d="M215.7,91.4c0.9-0.3,1.5-0.6,1.8-0.9C216.5,90.8,215.9,91.1,215.7,91.4z"/>
	<path class="st0" d="M274.2,66.6c0.7-0.2,1.1-0.4,1.3-0.6C274.8,66.1,274.3,66.3,274.2,66.6z"/>
	<path class="st0" d="M298.1,65.8c0.9-0.3,1.4-0.6,1.6-1C298.9,65,298.3,65.4,298.1,65.8z"/>
	<path class="st0" d="M192.5,102.8c-0.7,0.2-1.1,0.5-1.3,0.8C191.9,103.3,192.3,103.1,192.5,102.8z"/>
	<path class="st0" d="M206,104.7c-1,0.3-1.6,0.6-1.8,0.9C205.1,105.3,205.7,105,206,104.7z"/>
	<path class="st0" d="M319.4,56.5c-0.7,0.2-1.1,0.5-1.3,0.8C318.8,57,319.3,56.8,319.4,56.5z"/>
	<path class="st0" d="M229.7,94.6c-0.8,0.3-1.3,0.5-1.5,0.8C228.9,95.2,229.4,94.9,229.7,94.6z"/>
	<path class="st0" d="M316.1,57.7c-1,0.3-1.7,0.7-1.9,1.1C315.2,58.4,315.8,58.1,316.1,57.7z"/>
	<path class="st0" d="M209.4,94.3c-0.4,0.1-0.5,0.3-0.5,0.5C209.3,94.7,209.5,94.5,209.4,94.3z"/>
	<path class="st0" d="M317.9,48.4c0.5-0.4,0.7-0.8,0.6-1C318,47.8,317.8,48.2,317.9,48.4z"/>
	<path class="st0" d="M241.1,90c0.5,0,0.6-0.2,0.5-0.5C241.3,89.6,241.1,89.8,241.1,90z"/>
	<path class="st0" d="M239.5,80.5c-0.5,0.2-0.8,0.4-0.8,0.7C239.3,81,239.5,80.8,239.5,80.5z"/>
	<path class="st0" d="M315.6,32.2c-0.6-0.3-1-0.4-1.2-0.2C315,32.3,315.4,32.4,315.6,32.2z"/>
	<path class="st0" d="M318.7,34.3c-0.4-0.4-0.8-0.5-0.9-0.4C318.2,34.2,318.5,34.3,318.7,34.3z"/>
	<path class="st0" d="M294.1,67.4c0.5-0.3,0.8-0.5,0.8-0.8C294.3,67,294.1,67.2,294.1,67.4z"/>
	<path class="st0" d="M223.5,87.5c-0.5,0.2-0.8,0.5-0.8,0.7C223.3,88,223.6,87.7,223.5,87.5z"/>
	<path class="st0" d="M274.9,75.7c-0.6,0.1-0.9,0.2-0.8,0.6C274.6,76.1,274.9,75.9,274.9,75.7z"/>
	<path class="st0" d="M288.5,61.4c-0.4,0.1-0.6,0.2-0.6,0.5C288.3,61.8,288.6,61.6,288.5,61.4z"/>
	<path class="st0" d="M231,84.5c0.5-0.2,0.7-0.4,0.5-0.7C231,84,230.8,84.2,231,84.5z"/>
	<path class="st0" d="M322.1,55.3c0.5-0.2,0.8-0.4,0.8-0.6C322.4,54.9,322.1,55.1,322.1,55.3z"/>
	<path class="st0" d="M208.7,103.3c-0.4,0.1-0.6,0.3-0.6,0.5C208.5,103.7,208.7,103.6,208.7,103.3z"/>
	<path class="st0" d="M253.7,84.3c-0.4,0-0.6,0.3-0.6,0.5C253.5,84.7,253.6,84.6,253.7,84.3z"/>
	<path class="st0" d="M183.4,108.1c-0.4,0.2-0.5,0.3-0.4,0.6C183.3,108.6,183.4,108.3,183.4,108.1z"/>
	<path class="st0" d="M205.5,96.1c-0.4,0-0.6,0.2-0.5,0.4C205.4,96.4,205.6,96.3,205.5,96.1z"/>
	<path class="st0" d="M224,96.7c-0.6,0.3-0.9,0.6-0.9,0.9C223.7,97.2,224,97,224,96.7z"/>
	<path class="st0" d="M304.1,63.2c0.6,0,0.8-0.2,0.7-0.6C304.2,62.7,304,62.9,304.1,63.2z"/>
	<path class="st0" d="M258.7,82.6c-0.4,0.1-0.7,0.3-0.6,0.5C258.6,83,258.8,82.8,258.7,82.6z"/>
	<path class="st0" d="M201.8,98.4c0.6-0.1,0.8-0.3,0.7-0.6C201.9,97.9,201.7,98.1,201.8,98.4z"/>
	<path class="st0" d="M220.7,98.1c-0.4,0-0.6,0.2-0.6,0.4C220.5,98.5,220.6,98.4,220.7,98.1z"/>
	<path class="st0" d="M262.2,66.1c2.2-0.7,4-1.5,5.5-2.3C265.5,64.5,263.7,65.2,262.2,66.1z"/>
	<path class="st0" d="M255.1,69.2c2.1-1,3.8-1.8,5.2-2.8C258.2,67.4,256.5,68.3,255.1,69.2z"/>
	<path class="st0" d="M268.4,63.8c1.7-0.5,3.1-1,4.2-1.7C270.9,62.5,269.4,63.2,268.4,63.8z"/>
	<path class="st0" d="M276.3,60.5c-1.1,0.6-1.8,1.2-2.2,1.9C275.2,61.7,275.9,61.1,276.3,60.5z"/>
	<path class="st0" d="M303.3,48.9c1.4-0.5,2.4-0.9,3.1-1.3C305,48,304,48.4,303.3,48.9z"/>
	<path class="st0" d="M258.5,29.5c-1.4,0.2-2.5,0.4-3.3,0.7C256.6,30.1,257.7,29.8,258.5,29.5z"/>
	<path class="st0" d="M310.2,45.6c1-0.3,1.6-0.6,1.8-0.9C311,45,310.4,45.3,310.2,45.6z"/>
	<path class="st0" d="M316.4,38.3c-0.5-0.5-1-0.7-1.4-0.7C315.5,38.1,315.9,38.4,316.4,38.3z"/>
	<path class="st0" d="M311,35.8c0.7,0.4,1.2,0.6,1.6,0.5C311.9,35.9,311.4,35.7,311,35.8z"/>
	<path class="st0" d="M282.7,57.8c-0.9,0.2-1.4,0.6-1.6,0.9C282,58.5,282.5,58.2,282.7,57.8z"/>
	<path class="st0" d="M302.8,48.8c-0.5,0.2-0.8,0.4-0.8,0.7C302.6,49.2,302.8,49,302.8,48.8z"/>
	<path class="st0" d="M288.9,55.7c-0.5,0.2-0.8,0.4-0.8,0.7C288.6,56.1,288.9,55.9,288.9,55.7z"/>
	<path class="st0" d="M283.7,57.4c-0.3,0.1-0.4,0.3-0.4,0.5C283.6,57.9,283.8,57.6,283.7,57.4z"/>
	<path class="st0" d="M293.6,76.4c2.6-1.6,4.5-3.2,5.9-4.8c-2.9,0.3-5.4,0.6-7.8,1.2c-0.3,1.4-0.7,2.6-1,3.7
		C291.5,76.5,292.2,76.5,293.6,76.4z"/>
	<path class="st0" d="M290.3,77.8c1.4-0.5,2.4-0.9,3-1.3c-1.1,0-1.9,0-2.8,0.2C290.2,77.2,290,77.5,290.3,77.8z"/>
	<path class="st0" d="M303.1,70.4c0.4-0.1,0.6-0.2,0.7-0.5c-0.2-0.4-0.4-0.6-0.6-0.7C303,69.6,302.9,70,303.1,70.4z"/>
	<path class="st0" d="M344.5,80.7c-0.4-0.1-0.6-0.2-0.8-0.2c-1.2-0.1-2.3-0.1-3.6-0.3c1.2,0.1,2.3,0.1,3.3,0c-2-0.3-3.7-0.4-5.2-0.3
		c-0.1,0-0.2,0-0.2,0c-0.3-0.3-0.4-0.3-0.7-0.3c-0.7,0-1.1-0.1-1.5-0.1c-0.3,0.2-0.5,0.4-0.8,1.1c0.2,1.2,0.5,1.9,1.1,2.7
		c1.2,0.1,2,0.1,2.8,0.1c0.2,0,0.5,0,0.8,0.1c-0.3,0-0.5,0-0.6,0.1c0.6,0.2,1,0.2,1.3,0.1c0.1,0,0.3,0.1,0.5,0.2
		c1.6,0.3,2.7,0.3,3.8-0.1C344.8,82.6,344.8,81.7,344.5,80.7z"/>
	<path class="st0" d="M80.8,84.5c-1-0.5-1.6-0.8-2.6-1c-3.9,3.2-7.6,6.2-11.3,9.5c-2.5,2.6-4.9,4.9-7.2,7.2c0.2,1,0.5,2,1.3,3.1
		C68.1,97.2,74.6,90.9,80.8,84.5z"/>
	<path class="st0" d="M50.8,123.1c2.4-5.1,4.4-9.9,6.5-14.6c-1.1-0.5-2.1-0.9-3.6-1.5c-4,5.2-7.1,10.7-6.6,17.4
		C48.2,124.1,49.4,123.8,50.8,123.1z"/>
	<path class="st0" d="M50.8,123.5c-1.4,0.3-2.6,0.6-3.8,1.3c0.8,2.7,1.8,5,2.9,6.9c1.2-1,2.2-1.6,3.3-2.6
		C52.4,127,51.7,125.3,50.8,123.5z"/>
	<path class="st0" d="M60.7,103.4c-0.5-1.2-0.8-2.2-1.3-3c-2,2.2-3.8,4.2-5.4,6.5c1.2,0.7,2.3,1.2,3.6,1.4
		C58.9,106.6,59.9,105.1,60.7,103.4z"/>
	<path class="st0" d="M403.2,77.7c-9.8-0.4-19.6-0.8-29.4-0.9c0,0.8,0,1.2,0.3,1.7c4.4,0.4,8.4,1,12.4,1.2
		c5.8,0.4,11.6,0.6,17.6,0.7c0.4-0.4,0.6-0.7,0.7-1.4C404.2,78.3,403.7,77.7,403.2,77.7z"/>
	<path class="st0" d="M143.1,54.5c0.6-0.2,0.9-0.5,0.9-0.7C143.4,54,143.1,54.2,143.1,54.5z"/>
	<path class="st0" d="M514.7,88.4c-0.1-0.1-0.5-0.2-0.5-0.2s-0.2,0.3,0,0.3S514.8,88.5,514.7,88.4z"/>
	<path class="st0" d="M209.7,36.6c-0.8,0.2-1.3,0.3-1.6,0.6C209,37,209.5,36.8,209.7,36.6z"/>
	<path class="st0" d="M414.5,83.5c2.7,0,5,0,7.7,0c0.5-0.2,0.5-0.4,0.6-0.8s0.1-0.6,0.1-1c0-0.1,0.1-0.2,0.1-0.3
		c0.8-0.1,1.6-0.2,2.5-0.8c-0.2-1-0.5-1.5-1-2c0.1-0.1,0.1-0.1,0.2-0.2c1.1-0.4,1.7-0.8,2.2-1.3c0.3-0.3,0.6-0.6,0.9-1
		c-0.3,0.3-0.5,0.6-0.7,0.9c0.7-0.5,1.1-1,1.3-1.5l0.1-0.1c0.3,0,0.3-0.2,0.3-0.2c0-0.1,0.1-0.2,0.2-0.4c-0.1,0.1-0.1,0.2,0,0.3
		c0.4-0.2,0.5-0.4,0.4-0.6c0.1,0,0.1-0.1,0.2-0.1c0.7-0.4,1-0.6,1.2-0.8c0.3-0.2,0.5-0.5,0.9-0.8c-0.3,0.3-0.5,0.5-0.6,0.8
		c0.7-0.4,1-0.8,1.2-1.2c0,0,0.1,0,0.1-0.1c0.4-0.1,0.3-0.2,0.4-0.6c1.7-3.7-0.6-3.4-3-3.1c-5.9,5.3-11.5,10.5-19.9,10.8
		c-0.1,0.5-0.1,0.7-0.1,1C411.2,81.5,412.6,82.5,414.5,83.5z"/>
	<path class="st0" d="M458.4,86c0.2-0.4,0.1-0.6-0.3-0.9c-0.7-0.3-1-0.3-1.6-0.3c-1,0.3-1.7,0.5-2.4,0.7c-0.2,0-0.4-0.1-0.6-0.1
		c-2.1-0.4-3.8-0.7-5.6-0.9c-3,0.4-6,0.9-9.1,1.6c0.3,1.1,0.6,1.8,1.4,2.9c4.8,0.6,9.2,0.9,13.6,1.2c0.7-0.9,1.5-2.5,2-2.4
		c-0.5-0.1-1.3,1.6-1.6,2.5c1.8,0.2,3.2,0.2,4.6-0.2c-0.6-0.7-1.2-1.4-1.8-1.8c0.6,0.5,1.3,1.2,2.1,2c1.4,0.6,2.6,0.6,3.7,0.3
		c-0.4-1.6-0.7-2.9-1.3-4.4C460.4,86,459.5,85.9,458.4,86z"/>
	<path class="st0" d="M423.2,82.5c1.8-0.5,3.1-1,4.2-1.6c-0.7-0.2-1.2-0.2-1.8,0c-1,0.4-1.9,0.5-2.8,0.8
		C422.8,82.1,422.8,82.3,423.2,82.5z"/>
	<path class="st0" d="M492.7,90.1c-1.3,0.2-2.6,0.1-3.9,0c1.3,0.1,2.5,0.2,3.5-0.2c-5.9-1.4-11.4-2.2-17.4-3
		c-2.7-0.1-4.9-0.3-7.2-0.5c-0.8,0-1.6,0.1-2.9,0.1c-0.9,0-1.4-0.1-2.2-0.2c-0.1,0-0.2-0.1-0.3-0.1c0.1-0.1,0.3-0.3,0.2-0.8
		c-1.5-0.6-2.9-0.7-4.2-0.5c0.2,0.4,0.2,0.6,0.3,0.8c0.8,0.1,1.7,0.2,2.9,0.3c0.2,0,0.4,0.1,0.5,0.1c-0.1,0-0.2,0-0.2,0
		c0.2,1.4,0.5,2.7,0.9,4.3c4.7,0.9,9.4,1.5,14.5,2.1c0.9-0.4,1.4-0.7,2.1-1.1c1.1-1.5,2.2-2,3.4-2.2c-1.1,0.2-2.2,0.7-3.1,2.1
		c1.6,0.8,3.3,1.5,5,2.7c1.1,0.4,2.2,0.4,4.1,0.4c3.5,0,6.2,0,9.3,0c0.8-1,1.2-2,1.4-3c-0.8-0.6-1.2-1.2-2.1-1.8
		C495.6,89.6,494.2,89.7,492.7,90.1z"/>
	<path class="st0" d="M478,92.8c1.2,0.7,2.1,1.2,3,1.7c1,0,2,0,3.4-0.4c-1.3-1.1-3-1.9-4.9-2.6C478.7,92,478.2,92.3,478,92.8z"/>
	<path class="st0" d="M346.7,45.2c-0.4-0.3-0.6-0.3-0.6,0.2C346.5,45.4,346.6,45.4,346.7,45.2z"/>
	<path class="st0" d="M211.9,82.6c1.2-0.2,1.9-0.2,2.6-0.2c1.2-0.7,2.4-1.4,3.9-2.1c1.1-0.3,1.8-0.6,3.1-1.1
		c10.8-4.5,21-8.7,31.5-13.1c1-0.4,1.7-0.5,2.5-0.7c0.9-0.5,1.8-1,3.3-1.8c1.1-0.5,1.7-0.8,2.3-1c0.4-0.3,0.9-0.5,1.4-0.7
		c-0.5,0.2-0.8,0.5-1.1,0.7c1-0.4,1.6-0.7,2-1.1h0.1c0.3,0.1,0.3,0,0.3,0c0.1-0.3,0.4-0.5,0.9-0.7c0.2-0.1,0.4-0.1,0.4-0.1
		c1-0.4,2-0.9,3.5-1.5c0.7-0.4,1-0.6,1.4-0.6c0.3-0.3,0.5-0.6,0.8-0.9c-0.3,0.3-0.5,0.6-0.6,0.8c0.7-0.5,1.1-1,1.3-1.4
		c0.1-0.1,0.3-0.2,0.4-0.3c1.3-0.2,2.1-0.3,2.8-0.3c0.1-0.2,0.2-0.4,0.4-0.5c-0.1,0.2-0.2,0.3-0.1,0.5c0.4-0.4,0.5-0.6,0.5-0.8l0,0
		c0.3,0,0.2-0.1,0.2-0.1c1.1-0.3,2.2-0.6,3.9-1.2c1.3-0.4,2-0.7,2.7-0.9c0.6-0.3,1.2-0.6,2.2-1.2c1-0.4,1.6-0.5,2.1-0.7
		c0.1-0.3,0.4-0.4,1.1-0.7c1.5-0.6,2.6-1,3.6-1.4c0.3-0.3,0.5-0.5,1.3-1.1c1.8-0.8,3-1.2,4.2-1.7c0.8-0.6,1.6-1.1,2.6-1.8
		c0.3-0.2,0.4-0.1,0.4-0.1c2.1-1,4.3-2,6.4-3.2c0.3-0.2-0.2-1.6-0.8-2.8c-1.9,0.1-3.4,0.5-4.8,0.9c-0.1,0.2-0.2,0.3-0.3,0.5
		c0.1-0.2,0.2-0.4,0.2-0.6c-0.4,0.2-0.6,0.6-0.6,0.9c-0.1,0.1-0.2,0.1-0.3,0.2c-0.7,0.1-0.9,0.1-1,0.1c-0.8,0.4-1.5,0.7-2.8,1.4
		c-4.3,2-8.1,3.6-11.9,5.3c-13.5,5.9-27,12-40.6,17.8c-10.9,4.7-21.9,9.3-32.8,14.5c0.1,1.5,0.2,2.4,0.3,3.4
		C210.9,82.9,211.4,82.8,211.9,82.6z M213.8,79.9c0,0.1,0,0.3,0,0.4c-0.1-0.2-0.1-0.3-0.2-0.5C213.7,79.8,213.7,79.9,213.8,79.9z"/>
	<path class="st0" d="M190.5,91.9c-1.3,0.5-2.2,1-2.8,1.5C189,92.9,189.9,92.4,190.5,91.9z"/>
	<path class="st0" d="M174.3,99.2c-1.1,0.4-2,0.8-2.4,1.2C173,100.1,173.8,99.6,174.3,99.2z"/>
	<path class="st0" d="M178.3,97.1c-1.1,0.5-1.9,0.9-2.2,1.3C177.2,98,177.9,97.6,178.3,97.1z"/>
	<path class="st0" d="M206.5,85.5c-0.9,0.3-1.5,0.6-1.8,0.9C205.6,86.1,206.2,85.8,206.5,85.5z"/>
	<path class="st0" d="M183.7,95.4c0.9-0.4,1.4-0.8,1.6-1.2C184.4,94.6,183.9,95,183.7,95.4z"/>
	<path class="st0" d="M191.9,91.5c0.8-0.3,1.4-0.6,1.6-0.9C192.6,90.8,192.1,91.1,191.9,91.5z"/>
	<path class="st0" d="M185.8,94.3c0.5-0.2,0.8-0.5,0.7-0.7C186,93.8,185.8,94,185.8,94.3z"/>
	<path class="st0" d="M174.8,99.3c0.5-0.3,0.7-0.6,0.7-0.8C175,98.8,174.7,99,174.8,99.3z"/>
	<path class="st0" d="M169.6,101.4c0.6-0.2,0.9-0.4,0.9-0.7C169.9,100.9,169.6,101.1,169.6,101.4z"/>
	<path class="st0" d="M164,103.5c0.4-0.1,0.6-0.2,0.5-0.5C164.1,103.1,163.9,103.3,164,103.5z"/>
	<path class="st0" d="M180.8,96.4c0.6-0.1,0.8-0.3,0.7-0.6C181,96,180.8,96.2,180.8,96.4z"/>
	<path class="st0" d="M183.5,101.5c-1.1,0.5-1.9,1.1-2.5,1.6C182.2,102.6,183,102.1,183.5,101.5z"/>
	<path class="st0" d="M190.6,97.6c-1.1,0.4-1.9,0.9-2.3,1.3C189.4,98.4,190.2,98,190.6,97.6z"/>
	<path class="st0" d="M203.1,91.7c0.7-0.1,1.1-0.2,1.5-0.5c0-0.2,0.1-0.7-0.2-0.7C203.7,90.9,203.2,91.3,203.1,91.7z"/>
	<path class="st0" d="M196.5,94.5c-0.8,0.3-1.2,0.6-1.4,1C195.9,95.2,196.3,94.9,196.5,94.5z"/>
	<path class="st0" d="M173.3,107.9c0.7-0.5,1.1-0.9,1.2-1.3C173.7,107,173.4,107.5,173.3,107.9z"/>
	<path class="st0" d="M200,92.7c-0.6,0.2-0.9,0.5-0.9,0.7C199.7,93.2,200,93,200,92.7z"/>
	<path class="st0" d="M167.8,110.8c-0.5,0.3-0.7,0.6-0.7,0.9C167.7,111.4,167.9,111.1,167.8,110.8z"/>
	<path class="st0" d="M175.1,106.5c0.5-0.3,0.7-0.6,0.7-0.8C175.2,106,175,106.3,175.1,106.5z"/>
	<path class="st0" d="M171,109.3c0.5-0.2,0.7-0.4,0.7-0.7C171.1,108.8,170.9,109,171,109.3z"/>
	<path class="st0" d="M479.5,96c-0.5,0.1-0.7,0.3-0.7,0.5C479.3,96.3,479.5,96.2,479.5,96z"/>
	<path class="st0" d="M303.2,105.5c1.3-0.2,2.3-0.5,2.8-0.9C304.7,104.9,303.8,105.2,303.2,105.5z"/>
	<path class="st0" d="M263.5,90.7c-0.5,0.3-0.7,0.5-0.7,0.7C263.4,91.2,263.7,91,263.5,90.7z"/>
	<path class="st0" d="M297.3,46.6c1.1-0.6,1.8-1.2,2.3-1.8C298.5,45.4,297.7,46,297.3,46.6z"/>
	<path class="st0" d="M258.5,63.8c-1.2,0.6-2.1,1.1-2.7,1.6C257.1,64.9,257.9,64.3,258.5,63.8z"/>
	<path class="st0" d="M276.1,55.5c1.5-0.3,2.6-0.7,3.4-1C277.9,54.8,276.8,55.1,276.1,55.5z"/>
	<path class="st0" d="M265.4,60.6c1.4-0.4,2.4-0.8,3-1.3C267,59.8,266,60.2,265.4,60.6z"/>
	<path class="st0" d="M296.2,41.6c1.1-0.4,1.8-0.7,2.3-1.1C297.3,40.9,296.6,41.3,296.2,41.6z"/>
	<path class="st0" d="M284.4,52.4c-0.9,0.3-1.5,0.7-1.7,1C283.6,53.1,284.2,52.7,284.4,52.4z"/>
	<path class="st0" d="M291.7,49.3c0.6-0.3,0.8-0.6,0.8-0.8C291.9,48.8,291.7,49.1,291.7,49.3z"/>
	<path class="st0" d="M264.6,60.8c-0.6,0.1-0.8,0.3-0.7,0.6C264.5,61.3,264.7,61.1,264.6,60.8z"/>
	<path class="st0" d="M286.9,51.5c0.5-0.1,0.7-0.2,0.6-0.5C287,51,286.8,51.2,286.9,51.5z"/>
	<path class="st0" d="M412.2,87.7c9.4,0.8,18.5,1.2,27.6,1.2c-0.4-1-0.7-1.8-1.4-2.5c-3.5-0.4-6.8-0.9-10-1.3
		c3.3,0.4,6.6,0.8,10.1,1c3.5-0.8,6.5-1.2,9.2-1.9c-6.8-1.2-13.4-2.2-19.9-3.2c-1.4,0.5-2.8,1-4.6,1.8c-0.5,0.4-0.5,0.6-0.5,0.8
		c0,0.2,0.1,0.4,0.1,0.9c0.5,0.3,0.9,0.3,1.7,0.3c0.1,0,0.2,0,0.3,0c-0.5,0.6-0.9,1.2-1.4,1.7c0.5-0.6,0.9-1.2,1.1-1.8
		c-0.8,0-1.2,0-1.8,0.3c0-0.1-0.1-0.2-0.1-0.3c0-0.7,0-0.9-0.5-1.1c-2.7,0-5,0-7.3,0C413.8,84.8,412.8,86,412.2,87.7z"/>
	<path class="st0" d="M405.2,87.7c2.4,0.2,4.5,0.2,6.6-0.1c1.1-1.6,2.1-2.8,2.7-4.1c-1.8-1-3.2-2-5-3
		C405.3,81.5,405.1,84.6,405.2,87.7z"/>
</g>
</svg>
