<svg version="1.1" id="Layer_1" xmlns="http://www.w3.org/2000/svg" xmlns:xlink="http://www.w3.org/1999/xlink" x="0px" y="0px"
	 width="100%" viewBox="0 0 1024 1024" enable-background="new 0 0 1024 1024" xml:space="preserve">
<path fill="#000000" opacity="1.000000" stroke="none" 
	d="
M128.675339,513.986450 
	C128.446381,431.243683 151.322739,356.157104 199.793442,289.559601 
	C250.892776,219.350479 318.455627,171.859253 401.689453,146.796402 
	C425.307739,139.684616 449.464325,134.886688 473.957977,132.932724 
	C507.829651,130.230652 541.680786,130.799057 575.421814,136.414337 
	C636.620178,146.599091 692.728516,169.096588 742.453125,206.079681 
	C820.650330,264.239410 869.826050,341.329559 889.533386,436.981720 
	C895.677979,466.805328 897.774902,497.016327 896.123718,527.294067 
	C891.432373,613.319763 862.116577,690.076782 805.865784,755.578186 
	C754.154663,815.793396 689.699768,856.569702 612.821533,877.418518 
	C573.103088,888.189819 532.663208,892.321228 491.747528,890.128235 
	C427.451965,886.682129 367.456696,868.249634 312.578918,834.446350 
	C230.775131,784.057495 174.681534,713.221619 145.531662,621.441833 
	C137.662979,596.666870 132.725983,571.280151 130.528687,545.346558 
	C129.657730,535.066895 129.094574,524.783508 128.675339,513.986450 
M256.757080,246.256546 
	C222.145279,279.280060 194.622604,317.360138 174.830170,360.973480 
	C159.320618,395.149384 149.676163,430.982086 145.523483,468.192657 
	C143.162567,489.347839 142.536057,510.615692 144.098694,531.970947 
	C145.373230,549.388916 147.248566,566.688904 150.680969,583.773499 
	C163.575256,647.954163 192.706665,704.114929 236.125305,752.770264 
	C265.651672,785.857788 300.398193,812.555298 339.680695,833.324829 
	C386.225555,857.933960 435.821777,872.043213 488.227356,875.379883 
	C512.422119,876.920349 536.722839,876.127014 560.947144,872.891907 
	C594.447998,868.417969 626.920044,860.260132 657.768738,846.671326 
	C744.214844,808.592224 808.790466,747.664429 848.846313,661.552185 
	C868.516724,619.264465 878.969482,574.624573 881.442505,528.248596 
	C882.984314,499.336487 881.381958,470.455627 875.839539,441.853790 
	C862.817444,374.652832 833.259766,315.779572 787.137085,265.337311 
	C761.129578,236.894043 731.449036,212.955292 697.592285,194.177139 
	C634.371094,159.112427 566.857300,142.940948 494.586609,146.097244 
	C466.208923,147.336563 438.414124,151.641663 411.113739,159.281052 
	C352.810730,175.595825 301.495483,204.390015 256.757080,246.256546 
z"/>
<path fill="#000000" opacity="1.000000" stroke="none" 
	d="
M487.939606,637.048401 
	C486.588898,638.583801 485.243347,639.491455 483.423859,637.549683 
	C482.199951,636.243530 480.757874,635.141785 479.001770,633.583252 
	C477.472290,637.208496 479.807281,640.117126 479.461212,643.181519 
	C479.154633,645.895996 478.713715,648.183411 475.951385,649.153320 
	C473.726013,649.934631 473.384491,651.145142 473.880463,653.366211 
	C474.454010,655.934753 474.231049,658.671692 474.677063,661.280212 
	C475.585052,666.590881 478.166229,670.903564 482.789124,673.893311 
	C485.724548,675.791748 488.387360,678.243103 491.524841,679.673340 
	C501.562683,684.248962 500.512482,692.443970 497.807373,700.886841 
	C496.264771,705.701355 492.070160,706.090027 487.672577,705.957764 
	C487.148315,702.539062 489.584167,700.649170 490.214966,698.134399 
	C490.884247,695.466248 490.621063,692.968323 489.341644,689.809753 
	C487.685211,697.137573 487.735901,704.288513 481.305206,708.975647 
	C478.357025,711.124451 475.224823,711.454651 471.991547,711.931763 
	C470.664337,712.127563 469.269928,711.575623 468.994904,709.932251 
	C468.764343,708.554565 469.782410,707.899414 470.797974,707.236755 
	C476.337830,703.622009 478.639038,699.053650 477.024261,694.975586 
	C474.775177,689.295593 467.214233,684.996582 461.539764,686.273193 
	C459.940277,686.632935 458.393555,687.271423 456.863647,687.884460 
	C455.073669,688.601562 453.006317,690.562927 451.452393,688.671997 
	C449.838104,686.707642 450.302277,683.950623 451.561737,681.625977 
	C452.479401,679.932251 454.136505,679.087769 455.750092,678.195251 
	C468.046173,671.394348 468.957520,668.663940 463.145050,655.990479 
	C460.979065,655.712158 460.160095,657.795532 458.682709,658.694092 
	C456.766937,659.859192 454.738739,661.227600 452.695923,659.978088 
	C450.438171,658.597168 451.485443,656.098694 451.857544,654.023010 
	C452.029419,653.064209 452.491638,652.157471 452.824341,651.221191 
	C452.427582,651.098816 452.103638,650.875122 451.854767,650.939880 
	C443.401184,653.140076 443.846985,652.889404 443.949036,644.021606 
	C444.078552,632.769287 447.334717,622.136169 449.331787,610.653137 
	C445.824554,611.364624 444.386078,613.562317 443.047302,615.735229 
	C436.240112,626.783447 428.766998,637.403076 422.519257,648.820984 
	C418.580902,656.018433 413.431152,662.431030 405.220825,665.386597 
	C403.687561,665.938477 402.015381,666.926941 400.562653,665.460754 
	C399.233063,664.118774 399.626038,662.349915 400.101379,660.736755 
	C400.982880,657.745178 401.950958,654.779175 402.087646,651.184387 
	C399.078308,653.786560 396.144501,656.482849 393.044312,658.971802 
	C386.006897,664.621826 377.572937,666.389404 368.889008,667.267029 
	C366.723999,667.485840 364.183319,667.214844 363.033417,665.261719 
	C361.727753,663.043945 363.750397,661.256592 365.032257,659.545959 
	C367.790283,655.865417 370.559692,652.193420 373.107788,648.299377 
	C366.034058,653.366333 358.770264,657.812805 350.202850,659.728333 
	C345.405548,660.800903 340.577728,660.406006 335.783081,660.106079 
	C333.755798,659.979309 331.168610,659.409607 330.781006,656.775208 
	C330.423676,654.346436 332.642365,653.388184 334.384735,652.522888 
	C344.170502,647.663269 352.662445,641.012329 360.712250,633.735168 
	C361.182495,633.309998 361.519653,632.737671 361.717133,631.882324 
	C354.117035,636.395935 345.984344,639.551453 337.709045,642.362976 
	C331.038361,644.629395 324.312561,646.475891 317.237152,644.169495 
	C315.344727,643.552612 313.446808,642.971802 311.835083,641.682068 
	C307.565918,638.265747 307.772491,635.726562 312.691803,633.287659 
	C322.543610,628.403381 332.672821,624.228149 343.420746,621.576782 
	C334.925629,620.649414 326.566681,622.724365 318.124634,622.380615 
	C315.615875,622.278442 313.153381,622.182434 310.755310,621.326050 
	C308.961029,620.685303 307.167480,619.951294 306.969177,617.837158 
	C306.762756,615.636353 308.897522,615.346497 310.298950,614.677612 
	C323.405548,608.422546 337.191498,603.991089 351.024567,599.710754 
	C363.401947,595.880859 375.794800,592.099731 388.661407,590.170227 
	C397.470337,588.849304 403.754944,583.847717 408.741608,576.651917 
	C414.993317,567.630737 421.035034,558.456116 429.098450,550.794250 
	C437.886627,542.443787 447.579529,535.592529 458.661957,530.664795 
	C461.034149,529.609985 463.608429,528.690125 465.253418,526.345825 
	C464.229767,524.452515 462.608398,524.560608 460.918610,524.759033 
	C452.628357,525.732788 444.366089,525.832764 436.087006,524.427795 
	C429.445160,523.300598 429.137024,522.978210 431.353638,516.281982 
	C428.914154,514.717896 425.941223,515.271301 423.292267,514.550842 
	C414.947327,512.281250 414.198639,510.628815 419.158112,503.185272 
	C417.682404,500.899963 415.046661,500.863708 412.812561,499.969025 
	C410.450989,499.023315 407.257629,498.741852 406.841675,495.425232 
	C406.413788,492.013489 409.107056,490.527802 411.505768,488.976318 
	C411.910309,488.714630 412.272949,488.388153 412.908691,487.894714 
	C411.520477,485.771667 409.419647,484.923615 407.237457,484.198730 
	C405.027557,483.464691 402.786621,482.816406 400.603699,482.010345 
	C394.281616,479.675690 393.492126,476.778259 397.755646,471.708923 
	C398.477570,470.850586 399.279083,470.059235 400.136505,469.137299 
	C396.934418,466.928955 393.294647,467.201660 389.970428,466.358948 
	C386.801178,465.555542 382.871307,465.695862 381.950073,461.665314 
	C381.079437,457.856171 384.713104,456.369873 386.896698,454.231506 
	C387.589752,453.552795 388.390228,452.983795 389.810455,451.813354 
	C385.083130,449.388916 380.405731,449.908447 376.026764,449.435974 
	C371.648071,448.963470 367.507690,448.051727 363.721466,445.821381 
	C361.890350,444.742767 359.582428,443.724396 360.027222,441.056793 
	C360.421356,438.692780 362.788544,438.453003 364.619171,437.776154 
	C365.217377,437.554993 365.882904,437.515930 367.501373,437.204010 
	C361.944824,435.460876 357.282867,434.032867 352.647400,432.523438 
	C351.228973,432.061554 349.817902,431.493713 348.517517,430.769623 
	C345.322693,428.990662 341.230927,427.341888 341.106171,423.336914 
	C340.979126,419.258789 346.049286,420.367310 348.549957,418.134033 
	C342.553406,415.429626 336.649750,412.870209 330.846863,410.099640 
	C328.504669,408.981323 325.202515,408.036194 325.114227,405.110352 
	C325.011475,401.704681 328.769012,401.314606 331.121002,399.941986 
	C331.534271,399.700775 331.990906,399.533875 333.070038,399.036560 
	C325.164215,396.386047 318.212952,393.009186 312.329315,387.798401 
	C310.591125,386.259033 308.880341,384.639954 307.431183,382.837006 
	C306.013306,381.072998 303.736755,379.142548 304.891327,376.725861 
	C306.009430,374.385498 308.849487,374.706635 311.165924,374.685669 
	C315.498413,374.646484 319.831451,374.665131 324.164246,374.660858 
	C325.821564,374.659241 327.478882,374.660614 329.853821,374.660614 
	C327.399017,370.795166 323.700653,369.642731 320.561493,367.911316 
	C317.222076,366.069489 313.657501,364.605957 310.109375,363.181061 
	C306.614746,361.777649 303.017487,360.629761 298.385620,358.986755 
	C309.735870,350.366486 322.361084,351.971741 335.252197,351.472839 
	C330.643341,347.071625 325.160461,345.462219 320.312225,342.215210 
	C323.529816,338.755035 327.554077,337.703430 331.484528,336.704956 
	C343.715027,333.598083 355.839844,335.490875 368.013916,337.512024 
	C395.739777,342.115021 421.759583,352.488373 448.300110,361.058685 
	C468.176331,367.476929 479.993103,382.229126 487.471313,401.062897 
	C493.795807,416.991089 499.891083,433.019775 508.517120,447.928650 
	C519.988892,467.755920 536.212463,482.675690 555.772217,494.218140 
	C556.917297,494.893890 558.080139,495.546753 559.173645,496.299103 
	C559.551636,496.559204 559.743652,497.089569 560.006653,497.475952 
	C558.280029,500.236084 558.280029,500.236084 554.830627,502.057129 
	C554.961975,502.610443 554.907349,503.416809 555.283936,503.805450 
	C558.819702,507.454559 559.610291,511.202515 556.387573,515.565674 
	C555.063354,517.358521 555.541931,519.312744 557.300720,520.893555 
	C559.691528,523.042419 560.384460,525.568542 558.630615,528.480347 
	C557.023499,531.148499 557.840820,533.229370 560.226135,534.878906 
	C562.600525,536.520874 563.485107,538.529358 563.447083,541.607422 
	C563.370300,547.821350 568.424866,550.811646 573.119385,552.315796 
	C579.097290,554.231018 581.497742,557.701294 581.483704,564.503601 
	C587.608154,561.421814 592.249268,557.665283 596.214233,552.989624 
	C602.575928,545.487732 608.868103,537.940247 617.468262,532.764343 
	C622.064209,529.998291 626.807556,527.450623 631.990112,526.240479 
	C638.667236,524.681396 640.879211,519.666138 643.121277,513.795776 
	C638.113464,513.079895 634.057739,511.621613 632.139465,506.444489 
	C631.017151,503.415527 626.968262,505.080292 624.372314,503.448853 
	C627.017395,498.704865 631.374146,499.393097 635.337585,499.967834 
	C638.073547,500.364624 640.669495,501.755280 643.313660,502.740326 
	C644.090393,503.029694 644.799133,503.498749 645.571411,503.803436 
	C648.996521,505.154938 653.100525,505.888092 655.191101,502.748199 
	C657.311035,499.564331 654.375793,496.365631 651.907837,494.150299 
	C645.102722,488.041718 636.804504,485.579285 627.870239,484.251953 
	C612.099609,481.909027 596.788574,485.616608 581.271606,486.855499 
	C567.380066,487.964630 553.275513,489.260376 540.850220,480.262146 
	C530.769958,472.962097 530.369629,472.031342 537.570251,462.061310 
	C547.971313,447.659973 561.726013,436.939117 576.374512,427.217682 
	C594.103882,415.451599 614.014404,408.029388 632.933960,398.634277 
	C635.171082,397.523407 637.389526,396.373810 639.643860,395.299377 
	C640.692444,394.799591 642.077148,393.791321 642.847961,394.114471 
	C648.983826,396.686584 651.092163,391.338501 654.304932,388.405609 
	C658.089783,384.950439 662.432068,382.596375 667.252380,381.125397 
	C671.818054,379.732086 673.044617,380.761932 673.296936,386.315704 
	C676.370361,383.653442 679.146301,381.185760 681.989685,378.798401 
	C688.805115,373.075958 696.322937,369.122437 705.571167,369.655884 
	C707.504822,369.767395 709.381470,369.441528 710.704224,371.741455 
	C711.835815,373.708923 713.946289,372.592072 715.695129,372.082581 
	C718.195862,371.354004 720.648926,369.951599 723.817566,371.506226 
	C722.600281,380.046906 724.283081,388.840271 722.234253,397.505219 
	C720.616943,404.344543 717.403870,410.412476 712.510620,415.250275 
	C697.474243,430.116302 682.232056,444.777496 666.903564,459.343262 
	C659.783752,466.108826 653.802429,473.958160 645.950195,480.294800 
	C648.937134,484.212585 653.308472,485.858978 656.479736,488.979889 
	C660.553772,492.989197 663.722290,497.304993 663.602051,503.240692 
	C663.557434,505.445709 664.654602,506.471588 666.214783,507.627045 
	C675.540710,514.533936 677.522827,520.511841 674.566650,532.506592 
	C674.121948,532.506592 673.434082,532.712219 673.209534,532.476501 
	C667.881104,526.882629 661.075867,527.130127 654.153076,527.381531 
	C635.149414,528.071533 620.190430,536.657410 607.833313,550.590210 
	C603.083618,555.945496 598.253845,561.225220 592.556152,565.654541 
	C587.957214,569.229675 583.041931,571.797302 577.080200,571.587524 
	C575.508850,571.532227 574.587891,572.339600 573.606934,573.201660 
	C553.235168,591.104126 529.563110,603.074707 503.827057,610.851318 
	C495.989990,613.219421 492.617981,617.527100 491.979950,625.806458 
	C490.966461,630.201233 490.097443,633.867249 487.939606,637.048401 
M380.576752,601.480164 
	C377.905212,603.861389 374.844910,606.664551 377.062500,610.328308 
	C380.574432,616.130554 386.583252,613.055847 392.089142,613.322083 
	C391.710022,618.558655 395.216064,618.987244 399.235718,618.657104 
	C402.916992,618.354675 406.275604,618.908569 409.683716,620.715210 
	C413.380615,622.674866 416.218567,621.975220 419.509705,619.602173 
	C411.958984,617.827698 404.883759,614.329651 397.411652,615.118591 
	C395.980835,613.112305 397.337982,611.133362 395.157623,609.308167 
	C392.190918,609.308167 388.565369,609.370422 384.942932,609.291321 
	C381.044922,609.206177 379.853668,607.335327 381.600586,603.781433 
	C382.118408,602.727905 382.737854,601.724304 383.632568,600.121277 
	C382.317535,600.684021 381.716614,600.941162 380.576752,601.480164 
M663.161316,519.778442 
	C664.709167,520.002258 666.192139,521.390076 668.250854,519.751221 
	C666.375732,515.413269 663.276184,512.362732 658.515808,511.719116 
	C653.971252,511.104675 652.111084,515.359131 647.788208,517.672913 
	C653.501404,519.407349 658.172546,517.812073 663.161316,519.778442 
z"/>
<path fill="#000000" opacity="1.000000" stroke="none" 
	d="
M487.976196,637.442627 
	C490.097443,633.867249 490.966461,630.201233 491.978394,626.163513 
	C494.075012,618.142334 499.904388,615.878967 506.870850,614.133240 
	C515.079102,612.076355 522.905701,608.620178 530.493408,604.754883 
	C531.907104,604.034729 533.221375,602.765930 535.495789,603.363037 
	C534.632629,609.510132 532.314880,615.134155 529.113586,620.320129 
	C525.781799,625.717468 522.661987,631.198730 520.051270,636.973999 
	C518.895325,639.531067 517.215271,641.456848 514.192139,641.640442 
	C515.511230,651.223938 523.092468,658.481140 534.188538,660.508545 
	C540.233643,661.613098 546.270386,662.179077 552.501160,660.935059 
	C561.300354,659.178223 564.514709,660.928345 568.432739,668.687866 
	C569.693970,671.185669 571.610535,670.784424 573.522583,670.437012 
	C586.584961,668.064270 599.609802,665.476990 612.694275,663.236389 
	C620.881836,661.834351 629.123291,660.704529 637.092529,658.320862 
	C641.528748,656.994019 644.546448,658.083496 646.433533,662.340820 
	C648.471497,666.938660 647.465393,671.146118 643.413574,673.683533 
	C637.918274,677.125000 631.576660,678.142456 625.370361,679.032532 
	C610.065247,681.227356 595.254761,685.913391 579.890137,687.743835 
	C554.637268,690.752319 530.023376,697.390808 504.872986,700.985535 
	C504.235870,701.076599 503.574341,700.997009 502.512848,700.997009 
	C502.437378,695.161194 503.606537,689.326599 500.364960,682.963379 
	C516.291565,682.786377 531.076172,676.578735 546.789490,680.824280 
	C546.285583,679.296509 544.953430,678.405457 543.315369,678.389709 
	C535.620178,678.315674 528.366638,675.236816 520.626953,675.284424 
	C516.299561,675.311035 512.446228,676.139221 508.813416,678.500366 
	C507.023987,679.663330 505.007263,680.608521 502.962799,681.203491 
	C501.439209,681.646851 499.600830,681.741272 498.451630,680.025024 
	C497.324554,678.341797 497.926575,676.679626 498.967255,675.392334 
	C500.633698,673.331177 502.327393,671.088684 504.498596,669.672791 
	C516.360718,661.937256 512.991333,654.321594 502.858856,647.999023 
	C501.897125,648.799377 500.931030,649.688171 499.880646,650.462646 
	C495.310364,653.832520 492.398804,652.922852 490.476746,647.481140 
	C489.369232,644.345642 488.211273,641.210327 487.976196,637.442627 
M565.305054,671.080933 
	C560.341675,669.636414 555.369202,668.772217 550.147278,670.632629 
	C552.326843,675.338135 554.292114,679.829041 550.186829,684.340271 
	C550.851440,685.150208 551.612061,686.012695 553.068481,685.717224 
	C555.894836,681.213257 556.027710,676.509399 553.584167,671.873962 
	C555.870239,670.401794 557.473816,671.487061 559.176392,672.069824 
	C562.155396,673.089600 563.606079,672.857056 565.305054,671.080933 
z"/>
<path fill="#000000" opacity="1.000000" stroke="none" 
	d="
M783.694946,401.813843 
	C782.661804,402.424591 781.985535,403.028992 781.208557,403.216858 
	C778.187439,403.947266 776.073303,408.454224 772.463135,406.022186 
	C769.272156,403.872498 768.445129,395.352905 770.427795,391.470642 
	C776.023376,380.513977 781.608215,369.551910 786.497192,357.755981 
	C779.398438,361.809540 772.238159,365.759674 765.216064,369.941833 
	C755.629395,375.651306 755.674500,375.727081 750.739990,364.363098 
	C756.540588,360.803711 762.408081,357.136597 768.340759,353.578247 
	C777.762085,347.927429 787.180481,342.267975 796.710205,336.804169 
	C798.787476,335.613190 800.801880,332.710938 803.741028,334.937531 
	C806.808350,337.261169 808.471680,343.917572 806.916199,347.066864 
	C802.055298,356.908508 797.095642,366.701721 792.295044,376.572388 
	C791.482483,378.243164 789.858276,379.859528 791.181946,382.894867 
	C800.876099,377.830597 810.474182,372.816559 819.850891,367.918152 
	C820.536804,368.351837 820.914917,368.457092 821.057739,368.700470 
	C826.781250,378.453400 826.761963,378.424377 816.906311,383.740845 
	C805.921631,389.666351 794.971008,395.654999 783.694946,401.813843 
z"/>
<path fill="#000000" opacity="1.000000" stroke="none" 
	d="
M566.465942,240.668396 
	C562.317444,239.939575 561.201050,238.045700 562.162720,234.206726 
	C566.188171,218.136368 570.002136,202.012726 573.838928,185.895599 
	C574.624268,182.596756 575.915039,181.143738 579.718506,182.379135 
	C585.700623,184.322159 591.888428,185.628754 597.980957,187.235703 
	C605.491028,189.216553 610.960999,193.457016 612.079834,201.520126 
	C613.108154,208.931793 609.028870,213.755142 602.441589,217.056854 
	C605.042114,220.369949 607.851685,223.174667 608.383240,227.398209 
	C610.041199,240.572983 600.079224,249.037582 586.066956,245.956039 
	C579.597229,244.533264 573.251465,242.547012 566.465942,240.668396 
M578.490601,224.838226 
	C577.175903,231.419495 577.446411,231.876465 584.137085,233.366501 
	C585.745789,233.724777 587.421021,233.868073 589.072632,233.932785 
	C592.315674,234.059860 594.568420,232.474030 595.364075,229.381119 
	C596.194336,226.153625 594.498047,223.869812 591.677368,222.590469 
	C589.584045,221.641052 587.235474,221.268524 585.097717,220.400009 
	C581.262451,218.841782 579.089844,219.839890 578.490601,224.838226 
M586.456543,209.130783 
	C587.916626,209.407852 589.369446,209.733170 590.838135,209.952423 
	C594.491272,210.497818 596.902954,208.895111 598.116577,205.494308 
	C599.439880,201.786285 597.125366,199.929474 594.289734,198.506424 
	C587.040894,194.868607 585.216614,195.767303 583.524109,203.698105 
	C583.386230,204.344193 583.413635,205.029831 583.240967,205.663513 
	C582.628601,207.911591 583.844849,208.662903 586.456543,209.130783 
z"/>
<path fill="#000000" opacity="1.000000" stroke="none" 
	d="
M429.587952,223.270203 
	C427.244904,211.161942 424.946289,199.478729 422.558380,187.341888 
	C430.996735,184.880371 439.216583,183.405441 447.580627,182.365494 
	C455.018402,181.440750 461.913727,182.730637 467.919220,186.962677 
	C478.402100,194.349854 481.505066,205.078339 479.799377,217.248688 
	C477.886078,230.900269 468.656555,237.838165 456.154083,241.137115 
	C450.234039,242.699188 444.130890,243.562622 438.198761,245.085556 
	C434.563293,246.018890 433.346741,244.313721 432.797516,241.298996 
	C431.728943,235.433548 430.685944,229.563446 429.587952,223.270203 
M439.274536,196.726501 
	C438.994965,197.304123 438.387939,197.944016 438.484222,198.450150 
	C440.404633,208.547684 442.400299,218.630966 444.398346,228.713654 
	C444.670807,230.088547 445.608948,230.747726 446.953064,230.441269 
	C451.307800,229.448410 455.800232,228.965271 459.709137,226.431534 
	C465.960968,222.379105 468.380554,213.585510 465.459412,204.962769 
	C463.038971,197.817871 456.829559,193.684250 449.220398,194.478775 
	C446.104034,194.804169 443.051025,195.735779 439.274536,196.726501 
z"/>
<path fill="#000000" opacity="1.000000" stroke="none" 
	d="
M691.625122,266.541382 
	C683.075562,277.495819 670.378296,281.047363 657.996521,275.632599 
	C651.307190,272.707245 644.970764,268.971893 638.491943,265.570038 
	C636.779236,264.670654 635.322266,263.637146 636.623718,261.302063 
	C645.765076,244.899948 654.875732,228.480713 664.293518,211.531860 
	C673.770142,217.391891 683.939819,221.142380 691.430054,228.926315 
	C700.142090,237.979950 702.403381,252.327988 691.625122,266.541382 
M655.075806,260.518463 
	C661.508423,264.081879 667.907166,268.252533 675.426880,263.223877 
	C681.590820,259.101868 685.668945,253.339096 685.391113,245.844864 
	C685.089233,237.703094 678.904297,233.625076 672.391174,230.138947 
	C670.105591,228.915588 669.070496,230.000870 668.064514,231.802902 
	C663.528503,239.927917 658.950195,248.029312 654.409180,256.151581 
	C653.678345,257.458832 652.820312,258.835632 655.075806,260.518463 
z"/>
<path fill="#000000" opacity="1.000000" stroke="none" 
	d="
M349.502136,285.391113 
	C339.814453,296.141602 328.499908,300.482086 314.781982,295.449036 
	C300.714050,290.287537 292.117340,273.121613 295.828430,258.358521 
	C299.381744,244.223038 314.485809,234.010056 329.335327,235.717331 
	C331.155640,235.926620 332.894897,236.414139 334.467010,237.534546 
	C335.034912,240.787811 333.377350,243.700134 333.094421,246.811951 
	C332.895477,249.000168 331.346375,249.067932 329.380951,248.696640 
	C325.951355,248.048752 322.418823,247.816818 319.022003,248.945190 
	C312.050964,251.260910 307.707916,257.687836 308.032745,265.014252 
	C308.435333,274.094818 314.598480,282.099945 322.837128,284.243408 
	C329.595093,286.001648 338.200104,282.730255 341.556183,276.800568 
	C343.475922,273.408600 344.455994,269.731018 341.488312,266.109863 
	C338.213531,266.285675 336.125671,268.691467 333.737244,270.300415 
	C330.621643,272.399261 328.429138,272.523987 326.541809,268.892578 
	C325.559052,267.001709 324.156921,265.328766 322.607941,263.066162 
	C330.302979,258.461090 337.758331,253.999466 345.104187,249.603348 
	C357.396881,262.833130 358.544769,272.367432 349.502136,285.391113 
z"/>
<path fill="#000000" opacity="1.000000" stroke="none" 
	d="
M741.037415,350.821655 
	C737.590698,347.773956 739.598083,345.298035 741.119385,342.658905 
	C745.425354,335.188721 745.399109,335.150208 740.046509,328.556946 
	C738.792725,327.012573 737.264526,325.684174 736.069702,324.100128 
	C733.840210,321.144379 731.410950,321.253387 728.234375,322.681366 
	C718.931152,326.863495 716.106445,325.482086 711.665710,314.966461 
	C715.316406,312.670776 719.585449,311.832672 723.537598,310.257080 
	C736.808899,304.966400 750.184937,299.929596 763.362854,294.417908 
	C767.938721,292.504028 770.873047,292.924713 773.921265,297.065125 
	C779.842041,305.107208 779.626587,302.608459 775.028992,310.734802 
	C766.118591,326.484344 756.976440,342.102875 747.830322,357.948944 
	C744.423462,356.552795 743.594238,353.093231 741.037415,350.821655 
M756.277893,310.076447 
	C752.622864,311.802673 748.447998,312.617157 745.458740,315.962372 
	C747.583740,318.961884 749.404114,321.847229 753.105042,323.592163 
	C756.263916,318.441467 759.282410,313.519684 763.043396,307.387207 
	C759.999329,308.575989 758.466125,309.174744 756.277893,310.076447 
z"/>
<path fill="#000000" opacity="1.000000" stroke="none" 
	d="
M301.890015,315.373993 
	C300.472778,314.842529 299.182678,314.009674 298.255646,314.901978 
	C294.189758,318.815460 290.254700,322.865723 286.308289,326.901672 
	C285.461548,327.767639 285.916382,328.773956 286.339142,329.691895 
	C286.755707,330.596466 287.212341,331.482849 287.661591,332.372009 
	C293.043823,343.024963 293.044312,343.024719 283.711182,351.466125 
	C281.839264,350.953827 281.530029,349.109558 280.804474,347.739685 
	C272.095001,331.296692 263.799774,314.626587 254.134674,298.709045 
	C252.597580,296.177551 253.354172,294.652161 254.877670,292.574860 
	C260.848694,284.433228 260.785065,284.348663 269.860229,287.978271 
	C285.584869,294.267273 301.299622,300.581207 316.995941,306.940460 
	C318.155579,307.410309 319.672638,307.448730 320.289337,308.887115 
	C313.665405,319.255920 311.423859,320.074249 301.890015,315.373993 
M277.678955,315.454987 
	C283.256805,316.166779 283.627319,310.908264 287.433472,308.006897 
	C280.693451,305.090637 275.020081,302.635895 268.544983,299.834259 
	C271.748199,305.347260 274.528290,310.132111 277.678955,315.454987 
z"/>
<path fill="#000000" opacity="1.000000" stroke="none" 
	d="
M491.750000,222.974152 
	C491.748962,208.830338 491.863098,195.180359 491.676544,181.534500 
	C491.622131,177.554672 492.705841,175.782578 496.970367,175.879501 
	C506.119751,176.087463 515.285156,176.148010 524.429199,175.835510 
	C530.170349,175.639297 529.161621,179.344910 529.393982,182.788757 
	C529.654053,186.644440 528.685181,188.724930 524.242004,188.444519 
	C519.268738,188.130692 514.259033,188.443466 509.266998,188.365509 
	C504.332764,188.288467 505.503693,191.870331 505.310669,194.693893 
	C505.106110,197.686234 505.484711,199.949982 509.436523,199.767090 
	C514.086792,199.551895 518.763733,199.903580 523.412720,199.675354 
	C527.793762,199.460266 528.379211,201.962769 528.119263,205.364960 
	C527.880249,208.493530 529.086609,212.460999 523.560791,212.231400 
	C518.908386,212.038101 514.234131,212.348068 509.583771,212.130966 
	C504.757843,211.905685 505.377625,215.130325 505.336395,218.136414 
	C505.295837,221.093918 505.047394,223.862381 509.497101,223.693680 
	C515.479858,223.466873 521.479797,223.739014 527.469971,223.644318 
	C530.720581,223.592926 531.635315,225.424286 531.175110,228.083313 
	C530.678284,230.954376 532.991516,235.724365 527.669861,235.877426 
	C515.919067,236.215378 504.151733,235.982498 491.750549,235.982498 
	C491.750549,231.028564 491.750549,227.249054 491.750000,222.974152 
z"/>
<path fill="#000000" opacity="1.000000" stroke="none" 
	d="
M460.994019,707.271606 
	C442.863281,710.827087 425.202850,714.617310 407.422607,717.721008 
	C397.189667,719.507324 386.871429,718.960571 377.131104,714.654358 
	C375.417297,713.896667 372.978180,713.259949 373.079041,710.807495 
	C373.163940,708.743896 375.286072,708.104736 376.872589,707.236328 
	C384.341492,703.148132 392.801117,702.834717 400.860474,701.073486 
	C419.309357,697.041687 437.773254,693.035034 456.343750,689.633728 
	C461.065338,688.768982 466.363831,687.119202 471.200073,690.805481 
	C473.572357,692.613647 475.961060,693.903259 475.308167,697.382080 
	C474.610596,701.098999 473.615631,704.568176 469.170868,705.470825 
	C466.574066,705.998230 463.998962,706.632446 460.994019,707.271606 
z"/>
<path fill="#000000" opacity="1.000000" stroke="none" 
	d="
M380.606812,204.443451 
	C381.750458,207.234497 383.284729,209.484650 383.573792,212.469055 
	C378.807037,216.052231 373.135864,218.095337 367.785675,220.625046 
	C363.790161,222.514236 362.894409,224.534134 365.323761,228.182983 
	C366.317474,229.675491 367.017487,231.363541 368.052277,233.348526 
	C374.601440,230.172699 380.837524,227.148682 387.079498,224.121826 
	C387.606720,224.596741 388.060028,224.848175 388.287628,225.233063 
	C393.578156,234.179703 393.572937,234.180969 384.255035,238.763107 
	C383.358978,239.203751 382.483185,239.685410 381.589752,240.131592 
	C372.535675,244.653305 372.424774,245.178116 379.043610,254.154251 
	C386.066681,250.774796 393.191223,247.346512 400.470734,243.843658 
	C402.713593,247.519989 404.388855,250.897629 405.811127,255.246918 
	C394.706543,260.512939 383.656036,265.753296 372.848969,270.878204 
	C370.367188,269.754761 369.947693,267.621643 369.100983,265.892914 
	C361.998108,251.391174 355.072021,236.802017 347.867096,222.351685 
	C346.146942,218.901733 346.446533,217.204834 350.147675,215.508057 
	C358.619415,211.624268 366.862610,207.243958 375.228333,203.125626 
	C377.119141,202.194809 379.274689,200.761383 380.606812,204.443451 
z"/>
<path fill="#000000" opacity="1.000000" stroke="none" 
	d="
M838.660706,474.126160 
	C838.570618,472.523773 838.481445,471.364716 838.402588,470.204956 
	C837.945618,463.489319 833.508789,465.804260 829.696167,466.221893 
	C824.933044,466.743652 826.510681,469.787598 826.865540,472.486420 
	C827.189636,474.951721 827.256226,477.455353 827.662354,479.904602 
	C828.758484,486.515930 826.028076,489.235016 819.313965,488.282288 
	C817.427429,488.014587 816.860413,487.097870 816.647888,485.376190 
	C816.099915,480.936523 815.097656,476.533356 814.837952,472.082886 
	C814.542419,467.018433 811.033997,468.355804 808.341370,468.537720 
	C805.406128,468.736084 802.691345,469.616028 803.401001,473.690735 
	C804.110840,477.766205 804.512451,481.895721 805.237915,485.967957 
	C805.973511,490.097168 805.471741,493.108521 800.385010,493.638123 
	C798.458984,493.838654 796.606445,494.812286 794.301331,494.579010 
	C792.050110,486.437378 791.943970,477.945343 790.677795,469.634949 
	C790.453430,468.162415 790.417114,466.658295 790.145142,465.196411 
	C788.942749,458.732880 789.276733,457.763641 795.578979,457.026398 
	C812.526184,455.043884 829.394958,452.284546 846.477844,451.563416 
	C847.126648,451.536011 847.777588,451.559875 848.813599,451.559875 
	C849.663818,459.704041 850.499939,467.729095 851.340027,475.753784 
	C851.650635,478.721069 852.005005,481.684296 852.274658,484.655212 
	C852.493286,487.064148 851.548645,488.162598 848.910034,488.398132 
	C840.570862,489.142548 840.595459,489.257477 839.569763,480.467133 
	C839.339417,478.492889 838.971130,476.534760 838.660706,474.126160 
z"/>
<path fill="#000000" opacity="1.000000" stroke="none" 
	d="
M188.800415,450.079224 
	C203.084412,457.703125 216.995728,465.238892 231.039444,472.519257 
	C234.013184,474.060852 234.575043,475.973755 234.116730,478.934174 
	C232.738480,487.836945 232.792038,487.842133 223.824127,490.089172 
	C209.323044,493.722656 194.826141,497.372864 180.318542,500.980072 
	C178.726074,501.376038 177.074997,501.536377 175.352783,501.822327 
	C174.109467,498.187073 174.749878,494.683777 174.744537,491.238922 
	C174.740067,488.346893 177.007614,488.032166 179.206207,487.543304 
	C191.331192,484.847382 203.439301,482.075531 216.877640,479.029480 
	C206.239807,473.623535 196.681595,468.735626 187.095474,463.902985 
	C176.641846,458.633057 176.630569,458.655426 180.355759,446.844604 
	C183.510010,446.573151 185.767792,448.890320 188.800415,450.079224 
z"/>
<path fill="#000000" opacity="1.000000" stroke="none" 
	d="
M801.493896,433.638885 
	C795.707520,435.310272 790.301025,436.838715 784.840698,438.382385 
	C782.214172,434.757904 781.781982,430.800537 780.706604,426.738647 
	C785.531860,424.119446 790.788940,423.289490 795.778259,421.768036 
	C804.184692,419.204559 812.664001,416.875244 821.140808,414.549866 
	C824.161682,413.721161 825.199280,412.118256 824.222839,409.067139 
	C823.065125,405.449707 822.103577,401.769501 820.989319,397.880005 
	C824.314514,395.689087 827.971069,394.934967 832.379150,393.837494 
	C836.588928,408.060211 840.750183,422.119171 844.953430,436.320038 
	C841.098572,438.250092 837.468689,439.127502 833.663330,439.633667 
	C831.423096,436.628754 831.129150,433.048401 830.097412,429.779022 
	C829.271118,427.160492 828.163269,426.372253 825.418030,427.161713 
	C817.608521,429.407501 809.726929,431.402374 801.493896,433.638885 
z"/>
<path fill="#000000" opacity="1.000000" stroke="none" 
	d="
M255.664124,365.215179 
	C259.057312,367.660248 260.793304,365.785492 262.362030,363.327942 
	C265.025635,359.155243 267.706512,354.993622 270.477905,350.674957 
	C274.239655,352.361145 277.545319,353.786041 280.804840,356.757965 
	C275.337830,365.709686 269.921570,374.619659 264.453186,383.497528 
	C263.358826,385.274231 261.978302,384.584137 260.596344,383.721954 
	C245.628891,374.383636 230.684875,365.006653 215.642349,355.790588 
	C212.828278,354.066498 212.324478,352.401978 214.318405,349.857300 
	C215.035675,348.941925 215.738998,347.993744 216.291931,346.975403 
	C218.104691,343.636932 220.117493,343.265045 223.470184,345.411377 
	C233.979553,352.139221 244.711960,358.518677 255.664124,365.215179 
z"/>
<path fill="#000000" opacity="1.000000" stroke="none" 
	d="
M198.446304,404.678284 
	C191.541565,402.051636 191.468506,400.803680 197.642700,390.740356 
	C205.582443,393.553680 213.665619,396.388031 221.726196,399.285248 
	C226.412079,400.969513 231.096222,402.668762 235.714783,404.526337 
	C238.528381,405.657959 240.252609,405.325470 241.488632,402.202240 
	C243.135712,398.040283 245.613983,394.194702 247.119141,389.992554 
	C248.762482,385.404572 251.287048,384.986084 255.065430,387.170685 
	C256.607483,388.062286 258.602020,388.179230 260.021301,390.330627 
	C255.666275,399.858643 251.200745,409.637177 246.726746,419.411774 
	C245.251328,422.635223 242.975067,421.177094 240.832581,420.385468 
	C226.820938,415.208344 212.811462,410.025421 198.446304,404.678284 
z"/>
<path fill="#000000" opacity="1.000000" stroke="none" 
	d="
M689.066467,297.786987 
	C686.564819,294.152191 684.923401,290.597778 684.658142,286.462402 
	C684.451721,283.242126 685.307251,281.327881 689.016357,281.616852 
	C691.473572,281.808319 693.957764,281.653107 696.270325,281.653107 
	C697.685120,283.320557 697.129639,285.068329 697.285217,286.666229 
	C697.887817,292.853851 702.704651,295.265289 707.865540,291.798370 
	C711.495728,289.359711 714.201721,285.927551 716.954590,282.590790 
	C722.859741,275.433258 728.716736,268.235992 734.390991,261.302338 
	C735.277466,261.367218 735.665161,261.281952 735.913818,261.430176 
	C745.944824,267.409668 745.937134,267.407440 738.480469,276.561462 
	C732.497070,283.906769 726.911194,291.620209 720.469971,298.538177 
	C710.170227,309.600189 699.664429,309.201630 689.066467,297.786987 
z"/>
<path fill="#000000" opacity="1.000000" stroke="none" 
	d="
M616.321655,242.473068 
	C622.293396,227.810883 628.093323,213.495499 633.997375,198.923126 
	C638.335999,199.829803 642.019531,201.510101 646.202698,203.604431 
	C642.673218,212.515198 639.219238,221.281509 635.728943,230.033386 
	C632.585327,237.916107 629.235352,245.721725 626.308289,253.683395 
	C624.906311,257.496948 623.285156,258.438049 619.359009,256.731445 
	C612.037231,253.548813 611.933411,253.787704 616.321655,242.473068 
z"/>
<path fill="#000000" opacity="1.000000" stroke="none" 
	d="
M227.973297,444.254913 
	C214.605194,440.592499 201.693405,436.784546 188.643372,433.531036 
	C184.157150,432.412537 183.181183,430.575775 184.963837,426.653198 
	C185.911362,424.568298 185.688126,422.018555 187.895065,419.805603 
	C200.746750,423.197449 213.873535,426.645966 226.990005,430.133209 
	C231.002655,431.200012 234.948196,432.550781 238.997696,433.436768 
	C241.815979,434.053375 242.337021,435.223358 241.696381,437.979065 
	C239.109497,449.106415 241.006470,447.275574 227.973297,444.254913 
z"/>
<path fill="#000000" opacity="1.000000" stroke="none" 
	d="
M515.393799,813.016968 
	C521.246582,814.775085 524.712280,818.221497 525.295288,824.027710 
	C525.838196,829.434631 524.073242,833.920898 519.163330,836.675964 
	C514.571960,839.252380 509.900055,839.155396 505.488525,836.202209 
	C500.994598,833.193970 498.939606,826.775269 500.655518,821.667603 
	C502.832184,815.188599 507.298401,812.454651 515.393799,813.016968 
z"/>
<path fill="#000000" opacity="1.000000" stroke="none" 
	d="
M858.274536,475.699524 
	C853.149170,473.038086 853.176880,468.582764 852.928406,464.084412 
	C864.591675,464.893005 867.718872,468.766235 865.689819,479.760895 
	C862.544800,479.915131 860.809753,477.425690 858.274536,475.699524 
z"/>
</svg>